<svg width="22" height="13" viewBox="0 0 22 13" fill="none" xmlns="http://www.w3.org/2000/svg">
<path d="M9.41523 11.9437L0.523025 3.05145C0.357206 2.88563 0.225671 2.68877 0.13593 2.47212C0.0461894 2.25547 -8.84394e-08 2.02326 -7.81889e-08 1.78875C-5.74871e-08 1.31515 0.188138 0.860947 0.523025 0.52606C0.688844 0.360241 0.8857 0.228705 1.10235 0.138965C1.31901 0.0492238 1.55121 0.003036 1.78572 0.00303601C2.25932 0.00303604 2.71352 0.191173 3.04841 0.52606L10.6779 8.17336L18.3074 0.526061C18.4728 0.35937 18.6695 0.227065 18.8862 0.136776C19.1029 0.0464866 19.3354 8.45175e-07 19.5701 8.55438e-07C19.8049 8.657e-07 20.0374 0.0464866 20.2541 0.136776C20.4708 0.227065 20.6675 0.35937 20.8328 0.526061C20.9995 0.69139 21.1318 0.888088 21.2221 1.10481C21.3124 1.32153 21.3589 1.55398 21.3589 1.78875C21.3589 2.02353 21.3124 2.25598 21.2221 2.4727C21.1318 2.68942 20.9995 2.88612 20.8328 3.05145L11.9406 11.9437C11.7753 12.1103 11.5786 12.2427 11.3619 12.3329C11.1452 12.4232 10.9127 12.4697 10.6779 12.4697C10.4431 12.4697 10.2107 12.4232 9.99398 12.3329C9.77726 12.2427 9.58056 12.1103 9.41523 11.9437Z" fill="#26374D"/>
</svg>
