<svg width="42" height="42" viewBox="0 0 42 42" fill="none" xmlns="http://www.w3.org/2000/svg">
<rect width="42" height="42" rx="4" fill="#26374D"/>
<path d="M21 8C19.2928 8 17.6023 8.33625 16.0251 8.98957C14.4479 9.64288 13.0148 10.6005 11.8076 11.8076C9.36964 14.2456 8 17.5522 8 21C8 24.4478 9.36964 27.7544 11.8076 30.1924C13.0148 31.3995 14.4479 32.3571 16.0251 33.0104C17.6023 33.6637 19.2928 34 21 34C24.4478 34 27.7544 32.6304 30.1924 30.1924C32.6304 27.7544 34 24.4478 34 21C34 19.2928 33.6637 17.6023 33.0104 16.0251C32.3571 14.4479 31.3995 13.0148 30.1924 11.8076C28.9852 10.6005 27.5521 9.64288 25.9749 8.98957C24.3977 8.33625 22.7072 8 21 8ZM26.46 26.46L19.7 22.3V14.5H21.65V21.26L27.5 24.77L26.46 26.46Z" fill="white"/>
</svg>
