<svg width="14" height="14" viewBox="0 0 14 14" fill="none" xmlns="http://www.w3.org/2000/svg">
<path fill-rule="evenodd" clip-rule="evenodd" d="M0 7.00019C0.000240949 3.66068 2.35944 0.78639 5.63483 0.135104C8.91021 -0.516182 12.1895 1.23693 13.4673 4.32231C14.7451 7.40769 13.6655 10.966 10.8887 12.8212C8.11186 14.6764 4.41127 14.3117 2.05 11.9502C0.737276 10.6373 -0.000133953 8.85675 0 7.00019Z" fill="#C24747"/>
<path d="M4.02151 9.2704C3.82621 9.46563 3.82615 9.78221 4.02138 9.97751C4.2166 10.1728 4.53319 10.1729 4.72849 9.97764L4.02151 9.2704ZM7.35349 7.35364C7.54879 7.15842 7.54885 6.84184 7.35362 6.64654C7.1584 6.45124 6.84181 6.45118 6.64651 6.6464L7.35349 7.35364ZM6.64631 6.6466C6.45112 6.84194 6.45124 7.15852 6.64658 7.35371C6.84192 7.5489 7.1585 7.54878 7.35369 7.35344L6.64631 6.6466ZM9.97769 4.72744C10.1729 4.53211 10.1728 4.21552 9.97742 4.02034C9.78208 3.82515 9.4655 3.82527 9.27031 4.0206L9.97769 4.72744ZM7.35349 6.6464C7.15819 6.45118 6.8416 6.45124 6.64638 6.64654C6.45115 6.84184 6.45121 7.15842 6.64651 7.35364L7.35349 6.6464ZM9.27151 9.97764C9.46681 10.1729 9.7834 10.1728 9.97862 9.97751C10.1738 9.78221 10.1738 9.46563 9.97849 9.2704L9.27151 9.97764ZM6.64638 7.35351C6.8416 7.54881 7.15819 7.54887 7.35349 7.35364C7.54879 7.15842 7.54885 6.84184 7.35362 6.64654L6.64638 7.35351ZM4.72862 4.02054C4.5334 3.82524 4.21681 3.82518 4.02151 4.0204C3.82621 4.21563 3.82615 4.53221 4.02138 4.72751L4.72862 4.02054ZM4.375 9.62402L4.72849 9.97764L7.35349 7.35364L7 7.00002L6.64651 6.6464L4.02151 9.2704L4.375 9.62402ZM7 7.00002L7.35369 7.35344L9.97769 4.72744L9.624 4.37402L9.27031 4.0206L6.64631 6.6466L7 7.00002ZM7 7.00002L6.64651 7.35364L9.27151 9.97764L9.625 9.62402L9.97849 9.2704L7.35349 6.6464L7 7.00002ZM7 7.00002L7.35362 6.64654L4.72862 4.02054L4.375 4.37402L4.02138 4.72751L6.64638 7.35351L7 7.00002Z" fill="white"/>
</svg>
