<svg width="26" height="29" viewBox="0 0 26 29" fill="none" xmlns="http://www.w3.org/2000/svg">
<path d="M17.8743 27.1919C17.9393 27.6751 17.7768 28.1906 17.4031 28.5289C17.2528 28.6782 17.0743 28.7967 16.8777 28.8776C16.6812 28.9584 16.4705 29 16.2577 29C16.0449 29 15.8342 28.9584 15.6376 28.8776C15.4411 28.7967 15.2625 28.6782 15.1122 28.5289L8.59686 22.0692C8.41975 21.8974 8.28508 21.6873 8.20335 21.4554C8.12162 21.2235 8.09503 20.976 8.12567 20.7322V12.4844L0.343002 2.60965C0.0791523 2.27382 -0.0399022 1.84811 0.0118536 1.42553C0.0636094 1.00294 0.281968 0.617852 0.619214 0.354396C0.927922 0.128871 1.26912 0 1.62657 0H24.3734C24.7309 0 25.0721 0.128871 25.3808 0.354396C25.718 0.617852 25.9364 1.00294 25.9881 1.42553C26.0399 1.84811 25.9208 2.27382 25.657 2.60965L17.8743 12.4844V27.1919ZM4.94112 3.22178L11.3752 11.3729V20.265L14.6248 23.4868V11.3568L21.0589 3.22178H4.94112Z" fill="#26374D"/>
</svg>
