<svg width="42" height="49" viewBox="0 0 42 49" fill="none" xmlns="http://www.w3.org/2000/svg">
<rect width="42" height="49" rx="4" fill="#26374D"/>
<path fill-rule="evenodd" clip-rule="evenodd" d="M19.8007 39.5649C19.8007 39.5649 8 29.9766 8 20.5419C8 17.2156 9.36964 14.0255 11.8076 11.6735C14.2456 9.32138 17.5522 8 21 8C24.4478 8 27.7544 9.32138 30.1924 11.6735C32.6304 14.0255 34 17.2156 34 20.5419C34 29.9766 22.1993 39.5649 22.1993 39.5649C21.5428 40.1481 20.4621 40.1419 19.8007 39.5649ZM21 26.029C21.7469 26.029 22.4865 25.8871 23.1765 25.6114C23.8666 25.3356 24.4935 24.9314 25.0217 24.4219C25.5498 23.9124 25.9687 23.3075 26.2546 22.6418C26.5404 21.976 26.6875 21.2625 26.6875 20.5419C26.6875 19.8214 26.5404 19.1079 26.2546 18.4421C25.9687 17.7764 25.5498 17.1715 25.0217 16.662C24.4935 16.1525 23.8666 15.7483 23.1765 15.4725C22.4865 15.1968 21.7469 15.0548 21 15.0548C19.4916 15.0548 18.0449 15.6329 16.9783 16.662C15.9117 17.691 15.3125 19.0867 15.3125 20.5419C15.3125 21.9972 15.9117 23.3929 16.9783 24.4219C18.0449 25.4509 19.4916 26.029 21 26.029Z" fill="#EDEDED"/>
</svg>
