<svg width="120" height="27" viewBox="0 0 120 27" fill="none" xmlns="http://www.w3.org/2000/svg">
<path d="M50.1296 20.0928H39.7808L52.9952 2.05268C53.288 1.64842 53.2064 1.07915 52.816 0.777184C52.6656 0.66168 52.4816 0.597326 52.2944 0.595676H33.176C31.488 0.595676 30.12 2.00648 30.12 3.7473C30.12 5.48812 31.488 6.89892 33.176 6.89892H41.7728L28.5088 24.9473C28.2128 25.3417 28.2816 25.9077 28.664 26.2146C28.8208 26.34 29.0144 26.406 29.2112 26.4043H50.1312C51.816 26.3136 53.112 24.8318 53.024 23.0943C52.9424 21.4822 51.6944 20.1951 50.1312 20.111V20.0945L50.1296 20.0928ZM116.944 0.597328C115.256 0.597328 113.888 2.00813 113.888 3.74895V14.3193L97.3712 0.801934C96.9968 0.486772 96.4448 0.544524 96.1392 0.930639C96.0096 1.094 95.9408 1.2986 95.9424 1.50816V23.2362C95.9424 24.977 97.3104 26.3878 98.9984 26.3878C100.686 26.3878 102.054 24.977 102.054 23.2362V12.6659L118.571 26.1915C118.955 26.5017 119.51 26.4324 119.811 26.0364C119.933 25.8763 119.998 25.6799 120 25.4753V3.7473C120 2.00648 118.632 0.595676 116.944 0.595676M73.2464 20.6885C66.2592 20.6885 61.032 16.8901 61.032 13.4909C61.032 10.0918 66.2592 6.29335 73.2464 6.29335C80.2336 6.29335 85.4608 10.0918 85.4608 13.4909C85.4608 16.8901 80.2496 20.6885 73.2464 20.6885ZM73.2464 3.04014e-06C63.1296 3.04014e-06 54.928 6.03924 54.928 13.4909C54.928 20.9426 63.1296 26.9818 73.2464 26.9818C83.3632 26.9818 91.5648 20.9426 91.5648 13.4909C91.5648 6.03924 83.3632 3.04014e-06 73.2464 3.04014e-06ZM13.0976 20.6968C9.2384 20.7017 6.1072 17.4791 6.1024 13.4992C6.0976 9.51922 9.2224 6.29005 13.0816 6.2851C16.9408 6.28015 20.072 9.50272 20.0768 13.4827V13.4909C20.0768 17.4676 16.9536 20.6918 13.0976 20.6968ZM13.0976 3.04014e-06C5.8688 -0.00494715 0.00320295 6.03594 2.94791e-06 13.4909C-0.00479705 20.9476 5.8528 26.995 13.0816 27C20.3104 27.0049 26.176 20.9641 26.1792 13.5091V13.4926C26.1792 6.04254 20.3216 0.00165472 13.0976 0.00165472" fill="#005BFF"/>
</svg>
