<svg width="42" height="42" viewBox="0 0 42 42" fill="none" xmlns="http://www.w3.org/2000/svg">
<rect width="42" height="42" rx="4" fill="#26374D"/>
<path d="M15.11 26.8315C19.1631 30.8775 24.0994 34 28.1238 34C29.9331 34 31.5175 33.3698 32.7938 31.9695C33.5369 31.1434 34 30.1774 34 29.2258C34 28.5257 33.7331 27.8536 33.0606 27.3775L28.7688 24.325C28.11 23.8769 27.5631 23.6529 27.0581 23.6529C26.4131 23.6529 25.8519 24.0173 25.2069 24.647L24.2113 25.6272C24.1416 25.6977 24.0587 25.7538 23.9673 25.7922C23.876 25.8306 23.7779 25.8507 23.6787 25.8513C23.4544 25.8513 23.2575 25.7676 23.1037 25.6971C22.2481 25.2354 20.7619 23.9612 19.3731 22.589C17.9988 21.2168 16.7225 19.733 16.2738 18.865C16.1771 18.6937 16.1243 18.5012 16.12 18.3047C16.12 18.1231 16.1756 17.9403 16.33 17.7867L17.3113 16.7652C17.9431 16.1207 18.3075 15.5603 18.3075 14.9164C18.3075 14.4128 18.0831 13.8668 17.6206 13.2085L14.605 8.96595C14.1144 8.29391 13.4275 8 12.67 8C11.7444 8 10.7769 8.41995 9.96373 9.21864C8.60312 10.5209 8 12.1302 8 13.908C8 17.9265 11.0712 22.7993 15.11 26.8315Z" fill="white"/>
</svg>
