<svg width="35" height="35" viewBox="0 0 35 35" fill="none" xmlns="http://www.w3.org/2000/svg">
<path d="M34.707 0.999999C34.707 0.447716 34.2593 1.12162e-06 33.707 -4.79957e-07L24.707 -1.02787e-06C24.1547 -1.63413e-08 23.707 0.447714 23.707 1C23.707 1.55229 24.1547 2 24.707 2L32.707 2L32.707 10C32.707 10.5523 33.1547 11 33.707 11C34.2593 11 34.707 10.5523 34.707 10L34.707 0.999999ZM0.707031 34L1.41414 34.7071L34.4141 1.70711L33.707 1L32.9999 0.292893L-7.55191e-05 33.2929L0.707031 34Z" fill="#E32A33"/>
</svg>
