<svg width="18" height="15" viewBox="0 0 18 15" fill="none" xmlns="http://www.w3.org/2000/svg">
<path d="M6.75 4.41858e-07C6.05177 -0.000348111 5.37061 0.205524 4.8004 0.589243C4.23018 0.972962 3.79899 1.51564 3.56625 2.14248H0V4.28496H3.56625C3.79868 4.91221 4.22971 5.45537 4.79992 5.83956C5.37014 6.22376 6.05147 6.43007 6.75 6.43007C7.44853 6.43007 8.12986 6.22376 8.70008 5.83956C9.27029 5.45537 9.70132 4.91221 9.93375 4.28496H18V2.14248H9.93375C9.70101 1.51564 9.26982 0.972962 8.6996 0.589243C8.12939 0.205524 7.44823 -0.000348111 6.75 4.41858e-07ZM11.25 8.56993C10.5518 8.56958 9.87061 8.77545 9.3004 9.15917C8.73018 9.54289 8.29899 10.0856 8.06625 10.7124H0V12.8549H8.06625C8.29868 13.4821 8.72971 14.0253 9.29992 14.4095C9.87014 14.7937 10.5515 15 11.25 15C11.9485 15 12.6299 14.7937 13.2001 14.4095C13.7703 14.0253 14.2013 13.4821 14.4338 12.8549H18V10.7124H14.4338C14.201 10.0856 13.7698 9.54289 13.1996 9.15917C12.6294 8.77545 11.9482 8.56958 11.25 8.56993Z" fill="#26374D"/>
</svg>
