<svg width="57" height="91" viewBox="0 0 57 91" fill="none" xmlns="http://www.w3.org/2000/svg">
<path d="M7.54395 82.4655L10.2971 79.4473V77.0468H0.675875V80.0043H5.92384L3.54834 82.6175V85.0382H5.1287C6.49038 85.0382 7.16626 85.4838 7.16626 86.3549C7.16626 86.8106 6.97741 87.155 6.59972 87.3981C6.22202 87.6412 5.70518 87.7627 5.05912 87.7627C4.41306 87.7627 3.78689 87.6614 3.13089 87.469C2.47489 87.2765 1.88847 86.9929 1.37163 86.6385L0 89.525C0.675875 89.9504 1.47102 90.2847 2.38544 90.5176C3.29986 90.7506 4.23416 90.862 5.16845 90.862C6.45063 90.862 7.52407 90.6493 8.3888 90.234C9.25352 89.8188 9.89957 89.2617 10.327 88.573C10.7544 87.8944 10.9631 87.1449 10.9631 86.3447C10.9631 85.3623 10.6649 84.5216 10.0785 83.8329C9.49206 83.1442 8.64722 82.6782 7.54395 82.4453V82.4655ZM21.9659 82.1313H16.8372V77.0367H13.0702V90.5987H16.8372V85.3116H21.9659V90.5987H25.7329V77.0367H21.9659V82.1313ZM51.3366 83.5797L56.4653 77.0367H51.9728L47.3013 83.4683H47.2019V77.0367H43.4548V90.5987H47.2019V84.157L51.7243 90.5987H56.6045L51.3267 83.5898L51.3366 83.5797ZM37.9384 77.5229C36.9842 77.0165 35.881 76.7632 34.6187 76.7632C33.3564 76.7632 32.2631 77.0165 31.299 77.5229C30.3448 78.0293 29.5993 78.7788 29.0725 79.7511C28.5458 80.7235 28.2873 81.8983 28.2873 83.2657V90.5885H31.9947V87.5804H37.183V90.5885H40.95V83.2657C40.95 81.8983 40.6916 80.7235 40.1648 79.7511C39.6381 78.7788 38.8926 78.0293 37.9384 77.5229ZM37.193 84.6229H32.0046V82.9416C32.0046 81.949 32.2432 81.1995 32.7103 80.6931C33.1775 80.1867 33.8136 79.9334 34.6088 79.9334C35.4039 79.9334 36.0201 80.1867 36.4873 80.6931C36.9544 81.1995 37.193 81.949 37.193 82.9416V84.6229ZM32.4619 70.038H34.5988V72.6207H36.9147V65.622H34.5988V68.1035H32.4619V65.622H30.146V72.6207H32.4619V70.038ZM47.8181 65.622H45.542V72.6207H47.8181V65.622ZM53.9706 68.9948V72.6207H56.2467V65.622H54.07L51.7044 69.2581V65.622H49.4283V72.6207H51.6149L53.9706 68.9948ZM16.9466 72.3169C17.523 72.6309 18.179 72.7828 18.9046 72.7828C19.5705 72.7828 20.1669 72.6612 20.6937 72.4182C21.2205 72.1751 21.6479 71.8307 21.9858 71.3749L20.5247 70.0481C20.0973 70.595 19.6004 70.8685 19.0239 70.8685C18.5369 70.8685 18.1492 70.7065 17.861 70.3925C17.5628 70.0785 17.4236 69.6531 17.4236 69.1163C17.4236 68.5795 17.5727 68.1541 17.861 67.8401C18.1592 67.5261 18.5468 67.3641 19.0239 67.3641C19.6004 67.3641 20.0973 67.6375 20.5247 68.1845L21.9858 66.8577C21.6479 66.4019 21.2105 66.0575 20.6937 65.8144C20.1669 65.5714 19.5805 65.4599 18.9046 65.4599C18.179 65.4599 17.523 65.6119 16.9466 65.9258C16.3601 66.2398 15.9129 66.6753 15.5749 67.2223C15.2469 67.7793 15.078 68.4073 15.078 69.1163C15.078 69.8253 15.2469 70.4532 15.5749 71.0103C15.9029 71.5674 16.3601 72.0029 16.9466 72.3067V72.3169ZM51.1975 64.7915C51.5354 65.0751 52.0722 65.2169 52.8375 65.2169C53.6028 65.2169 54.1495 65.0751 54.4874 64.7915C54.8254 64.5079 54.9943 64.0723 54.9943 63.5052H53.4537C53.4537 63.728 53.404 63.9002 53.3146 63.9913C53.2251 64.0926 53.0661 64.1432 52.8375 64.1432C52.6089 64.1432 52.4598 64.0926 52.3703 63.9913C52.2809 63.89 52.2411 63.728 52.2411 63.5052H50.7005C50.7005 64.0825 50.8695 64.5079 51.1975 64.7915ZM14.1834 70.8381H10.7444V69.9164H13.6467V68.2149H10.7444V67.3945H14.0542V65.6119H8.46831V72.6106H14.1834V70.828V70.8381ZM29.0924 65.622H22.7909V67.4552H24.7986V72.6207H27.0747V67.4552H29.0825V65.622H29.0924ZM44.9158 70.0785C44.9158 69.3189 44.6872 68.7415 44.2201 68.3567C43.7529 67.9718 43.0969 67.7692 42.2422 67.7692H40.8208V65.622H38.5447V72.6207H41.9539C42.8783 72.6207 43.6038 72.408 44.1306 71.9624C44.6574 71.5167 44.9258 70.8989 44.9258 70.0785H44.9158ZM42.3614 70.747C42.2123 70.8989 42.0136 70.9698 41.785 70.9698H40.8109V69.4201H41.785C42.3217 69.4201 42.59 69.6531 42.59 70.119C42.59 70.3823 42.5205 70.595 42.3614 70.747ZM3.33962 70.595C3.70737 70.595 4.12482 70.5241 4.58203 70.3824V72.6207H6.85814V65.622H4.58203V68.5592C4.33355 68.6605 4.01549 68.7213 3.62786 68.7213C3.24022 68.7213 2.97186 68.62 2.79295 68.4174C2.61404 68.2149 2.51465 67.9009 2.51465 67.4755V65.622H0.238544V67.7287C0.238544 68.6605 0.496966 69.3695 1.02375 69.8557C1.55054 70.3418 2.31586 70.5849 3.32968 70.5849L3.33962 70.595Z" fill="#706F6F"/>
<path d="M42.1826 16.9145L24.0831 35.3583L14.0642 25.1488L9.11445 30.1928L24.0831 45.4462L47.1324 21.9584L42.1826 16.9145ZM7.22598 10.7057C7.22598 8.73069 8.79639 7.14053 10.7246 7.14053H19.1234V0.0101277H10.7246C4.92005 0.0101277 0.21875 4.80087 0.21875 10.7159V19.2744H7.21604V10.7159L7.22598 10.7057ZM49.2296 10.7057V19.2642H56.2269V10.7057C56.2269 4.79074 51.5256 0 45.7309 0H37.3322V7.1304H45.7309C47.6691 7.1304 49.2296 8.73069 49.2296 10.6956V10.7057ZM49.2296 37.8094V46.3679C49.2296 48.3328 47.6592 49.9331 45.7309 49.9331H37.3322V57.0635H45.7309C51.5355 57.0635 56.2269 52.2727 56.2269 46.3577V37.7992H49.2296V37.8094ZM7.22598 46.3679V37.8094H0.22869V46.3679C0.22869 52.2829 4.92999 57.0635 10.7246 57.0635H19.1234V49.9331H10.7246C8.78645 49.9331 7.22598 48.3328 7.22598 46.3679Z" fill="#706F6F"/>
</svg>
