<svg width="106" height="38" viewBox="0 0 106 38" fill="none" xmlns="http://www.w3.org/2000/svg">
<path d="M52.9526 23.3637L55.9078 20.1577V17.61H45.5907V20.7502H51.22L48.6701 23.5217V26.0891H50.3635C51.8215 26.0891 52.5472 26.5565 52.5472 27.4848C52.5472 27.9653 52.3445 28.334 51.9392 28.5907C51.5338 28.8541 50.9781 28.9791 50.285 28.9791C49.592 28.9791 48.9186 28.8738 48.219 28.6697C47.5194 28.4657 46.8917 28.1694 46.3295 27.7876L44.8584 30.8488C45.5776 31.303 46.4341 31.6519 47.4148 31.8955C48.4021 32.1391 49.3958 32.2642 50.4027 32.2642C51.7757 32.2642 52.9264 32.0403 53.8614 31.5993C54.7898 31.1582 55.4828 30.5723 55.9405 29.8415C56.3982 29.1174 56.6204 28.3274 56.6204 27.4782C56.6204 26.438 56.3066 25.5493 55.6724 24.8186C55.0448 24.0878 54.136 23.5941 52.9526 23.3505V23.3637ZM68.4217 23.0148H62.9166V17.6166H58.8826V31.9877H62.9166V26.3788H68.4217V31.9877H72.4623V17.6166H68.4217V23.0148ZM85.5581 18.1366C84.5316 17.5968 83.3482 17.3269 82.0014 17.3269C80.6545 17.3269 79.4646 17.5968 78.4446 18.1366C77.4181 18.6764 76.6205 19.4664 76.0582 20.5C75.4959 21.5336 75.2148 22.7778 75.2148 24.2261V31.9877H79.19V28.8014H84.7604V31.9877H88.801V24.2261C88.801 22.7778 88.5198 21.5336 87.9576 20.5C87.3888 19.4664 86.5976 18.683 85.5712 18.1366H85.5581ZM84.7539 25.6612H79.1834V23.8706C79.1834 22.8173 79.4319 22.0273 79.9353 21.4875C80.4388 20.9542 81.1187 20.6843 81.9752 20.6843C82.8317 20.6843 83.492 20.9542 83.9955 21.4875C84.4989 22.0207 84.7474 22.8173 84.7474 23.8706V25.6612H84.7539ZM99.9354 24.5487L105.434 17.61H100.615L95.6006 24.4236H95.496V17.61H91.4816V31.9811H95.496V25.1543L100.347 31.9811H105.584L99.9288 24.5487H99.9354ZM79.6738 10.2368H81.9687V12.9688H84.4531V5.54956H81.9687V8.17625H79.6738V5.54956H77.1893V12.9688H79.6738V10.2368ZM102.747 9.12423V12.9688H105.192V5.54956H102.858L100.321 9.40731V5.54956H97.8824V12.9688H100.23L102.753 9.12423H102.747ZM99.7654 4.67399C100.125 4.97682 100.713 5.12823 101.524 5.12823C102.335 5.12823 102.923 4.97682 103.289 4.67399C103.656 4.37116 103.839 3.91692 103.839 3.30469H102.184C102.184 3.54827 102.132 3.71943 102.034 3.82476C101.936 3.93009 101.76 3.98276 101.524 3.98276C101.289 3.98276 101.119 3.93009 101.021 3.82476C100.923 3.71943 100.877 3.54827 100.877 3.30469H99.2227C99.2227 3.91034 99.3993 4.37116 99.7588 4.67399H99.7654ZM63.0278 12.6528C63.6489 12.982 64.355 13.1466 65.1331 13.1466C65.8522 13.1466 66.4864 13.0215 67.0487 12.7647C67.611 12.508 68.0752 12.1459 68.4348 11.6653L66.8657 10.2565C66.408 10.8359 65.8719 11.1255 65.2573 11.1255C64.7408 11.1255 64.3223 10.9609 64.002 10.6186C63.6881 10.2829 63.5312 9.83522 63.5312 9.26906C63.5312 8.70291 63.6881 8.25525 64.002 7.91951C64.3158 7.58376 64.7342 7.41918 65.2573 7.41918C65.8784 7.41918 66.4145 7.70884 66.8657 8.28816L68.4348 6.87936C68.0687 6.39879 67.6045 6.03013 67.0487 5.77339C66.4864 5.51664 65.8457 5.39156 65.1331 5.39156C64.355 5.39156 63.6489 5.55614 63.0278 5.8853C62.4001 6.21446 61.9163 6.67528 61.5633 7.26119C61.2102 7.85367 61.0337 8.51858 61.0337 9.26906C61.0337 10.0195 61.2102 10.6844 61.5633 11.2769C61.9163 11.8694 62.4067 12.3237 63.0278 12.6528ZM96.1433 5.55614H93.698V12.9754H96.1433V5.55614ZM93.0246 10.2829C93.0246 9.47972 92.7762 8.86749 92.2793 8.45274C91.7824 8.038 91.0697 7.83392 90.1544 7.83392H88.631V5.55614H86.1857V12.9754H89.8405C90.8278 12.9754 91.6058 12.745 92.1746 12.2842C92.7435 11.8233 93.0246 11.1584 93.0246 10.2829ZM90.2851 10.9873C90.1217 11.1453 89.919 11.2243 89.664 11.2243H88.6245V9.58505H89.664C90.2394 9.58505 90.5271 9.82863 90.5271 10.329C90.5271 10.612 90.4486 10.8293 90.2851 10.9939V10.9873ZM76.0452 5.55614H69.2847V7.49818H71.4423V12.9754H73.8876V7.49818H76.0452V5.55614ZM48.4151 10.8227C48.814 10.8227 49.2585 10.7437 49.7489 10.5989V12.9688H52.1942V5.54956H49.7489V8.66999C49.4808 8.7819 49.1409 8.84115 48.729 8.84115C48.3171 8.84115 48.0294 8.73582 47.8332 8.51858C47.6371 8.30133 47.539 7.97217 47.539 7.51793V5.55614H45.0938V7.79443C45.0938 8.7819 45.3749 9.53897 45.9372 10.0525C46.506 10.5725 47.3233 10.8293 48.4086 10.8293L48.4151 10.8227ZM60.0464 11.086H56.3655V10.1117H59.4841V8.30791H56.3655V7.43893H59.9156V5.54956H53.9267V12.9688H60.053V11.086H60.0464Z" fill="#706F6F"/>
<path d="M27.5973 10.9874L15.6914 22.9753L9.10104 16.3461L5.84506 19.6245L15.6914 29.5388L30.8533 14.2724L27.5973 10.9939V10.9874ZM4.60282 6.95185C4.60282 5.67471 5.63584 4.63457 6.90424 4.63457H12.4289V0H6.90424C3.09252 0 0 3.11385 0 6.95844V12.5212H4.60282V6.95844V6.95185ZM32.2328 6.95185V12.5147H36.8357V6.95185C36.8357 3.11385 33.7431 0 29.9314 0H24.4067V4.63457H29.9314C31.2064 4.63457 32.2328 5.67471 32.2328 6.95185ZM32.2328 24.5685V30.1313C32.2328 31.415 31.1998 32.4486 29.9314 32.4486H24.4067V37.0831H29.9314C33.7431 37.0831 36.8357 33.9693 36.8357 30.1247V24.5619H32.2328V24.5685ZM4.60282 30.1313V24.5685H0V30.1313C0 33.9759 3.09252 37.0897 6.90424 37.0897H12.4289V32.4551H6.90424C5.62931 32.4551 4.60282 31.415 4.60282 30.1379V30.1313Z" fill="#706F6F"/>
</svg>
