<svg width="77" height="27" viewBox="0 0 77 27" fill="none" xmlns="http://www.w3.org/2000/svg">
<path d="M38.2675 16.9502L40.4032 14.6243V12.7759H32.9472V15.0541H37.0154L35.1727 17.0648V18.9275H36.3964C37.4501 18.9275 37.9746 19.2666 37.9746 19.94C37.9746 20.2886 37.8281 20.5561 37.5352 20.7424C37.2422 20.9334 36.8406 21.0241 36.3397 21.0241C35.8389 21.0241 35.3522 20.9477 34.8466 20.7997C34.341 20.6516 33.8874 20.4367 33.4811 20.1597L32.418 22.3805C32.9377 22.7101 33.5567 22.9632 34.2655 23.1399C34.9789 23.3166 35.6971 23.4074 36.4248 23.4074C37.417 23.4074 38.2486 23.245 38.9243 22.925C39.5953 22.605 40.0961 22.18 40.4269 21.6498C40.7576 21.1244 40.9183 20.5513 40.9183 19.9352C40.9183 19.1806 40.6915 18.5358 40.2331 18.0057C39.7795 17.4755 39.1228 17.1173 38.2675 16.9406V16.9502ZM49.4469 16.6971H45.4685V12.7807H42.5531V23.2068H45.4685V19.1376H49.4469V23.2068H52.367V12.7807H49.4469V16.6971ZM61.8312 13.158C61.0894 12.7664 60.2341 12.5706 59.2608 12.5706C58.2874 12.5706 57.4275 12.7664 56.6904 13.158C55.9485 13.5496 55.3721 14.1228 54.9657 14.8726C54.5594 15.6224 54.3562 16.5251 54.3562 17.5758V23.2068H57.229V20.8952H61.2547V23.2068H64.1748V17.5758C64.1748 16.5251 63.9716 15.6224 63.5653 14.8726C63.1542 14.1228 62.5825 13.5544 61.8406 13.158H61.8312ZM61.25 18.617H57.2243V17.3179C57.2243 16.5538 57.4039 15.9806 57.7677 15.589C58.1315 15.2022 58.6229 15.0063 59.2419 15.0063C59.8609 15.0063 60.3381 15.2022 60.7019 15.589C61.0657 15.9759 61.2453 16.5538 61.2453 17.3179V18.617H61.25ZM72.2215 17.8099L76.1952 12.7759H72.7129L69.0888 17.7191H69.0132V12.7759H66.112V23.202H69.0132V18.2493L72.5192 23.202H76.3039L72.2168 17.8099H72.2215ZM57.5787 7.42676H59.2372V9.40881H61.0327V4.02621H59.2372V5.93185H57.5787V4.02621H55.7832V9.40881H57.5787V7.42676ZM74.2533 6.6196V9.40881H76.0204V4.02621H74.3336L72.5003 6.82497V4.02621H70.7378V9.40881H72.4341L74.258 6.6196H74.2533ZM72.0986 3.391C72.3585 3.6107 72.7838 3.72055 73.3697 3.72055C73.9556 3.72055 74.3808 3.6107 74.6454 3.391C74.91 3.1713 75.0423 2.84175 75.0423 2.39758H73.8469C73.8469 2.5743 73.8091 2.69847 73.7382 2.77489C73.6674 2.85131 73.5398 2.88952 73.3697 2.88952C73.1996 2.88952 73.0767 2.85131 73.0059 2.77489C72.935 2.69847 72.9019 2.5743 72.9019 2.39758H71.7065C71.7065 2.83698 71.834 3.1713 72.0939 3.391H72.0986ZM45.5488 9.17956C45.9977 9.41837 46.508 9.53777 47.0702 9.53777C47.59 9.53777 48.0483 9.44702 48.4547 9.26076C48.861 9.07449 49.1965 8.81181 49.4564 8.46316L48.3224 7.44108C47.9916 7.86138 47.6042 8.07152 47.16 8.07152C46.7867 8.07152 46.4843 7.95212 46.2528 7.70377C46.026 7.46019 45.9126 7.13542 45.9126 6.72468C45.9126 6.31394 46.026 5.98917 46.2528 5.74559C46.4796 5.50201 46.782 5.38261 47.16 5.38261C47.6089 5.38261 47.9963 5.59276 48.3224 6.01305L49.4564 4.99097C49.1918 4.64232 48.8563 4.37486 48.4547 4.1886C48.0483 4.00233 47.5853 3.91159 47.0702 3.91159C46.508 3.91159 45.9977 4.03099 45.5488 4.26979C45.0952 4.50859 44.7455 4.84292 44.4904 5.26798C44.2352 5.69783 44.1077 6.18021 44.1077 6.72468C44.1077 7.26915 44.2352 7.75153 44.4904 8.18137C44.7455 8.61121 45.0999 8.94076 45.5488 9.17956ZM69.481 4.03099H67.7138V9.41359H69.481V4.03099ZM67.2272 7.46019C67.2272 6.87751 67.0476 6.43334 66.6885 6.13245C66.3294 5.83156 65.8144 5.6835 65.1529 5.6835H64.0519V4.03099H62.2848V9.41359H64.9261C65.6396 9.41359 66.2018 9.24643 66.6129 8.9121C67.024 8.57778 67.2272 8.0954 67.2272 7.46019ZM65.2474 7.97122C65.1292 8.08585 64.9828 8.14316 64.7985 8.14316H64.0472V6.95393H64.7985C65.2143 6.95393 65.4222 7.13064 65.4222 7.49362C65.4222 7.69899 65.3655 7.8566 65.2474 7.976V7.97122ZM54.9563 4.03099H50.0706V5.43992H51.6299V9.41359H53.397V5.43992H54.9563V4.03099ZM34.9884 7.85182C35.2766 7.85182 35.5979 7.79451 35.9523 7.68944V9.40881H37.7194V4.02621H35.9523V6.29006C35.7586 6.37125 35.5129 6.41423 35.2152 6.41423C34.9175 6.41423 34.7096 6.33782 34.5679 6.18021C34.4261 6.0226 34.3552 5.7838 34.3552 5.45425V4.03099H32.5881V5.65484C32.5881 6.37125 32.7912 6.9205 33.1976 7.29303C33.6087 7.67033 34.1993 7.8566 34.9837 7.8566L34.9884 7.85182ZM43.3942 8.04286H40.734V7.33601H42.9878V6.02738H40.734V5.39694H43.2997V4.02621H38.9716V9.40881H43.3989V8.04286H43.3942Z" fill="#706F6F"/>
<path d="M19.9443 7.97122L11.34 16.6684L6.57722 11.8589L4.22416 14.2374L11.34 21.4301L22.2973 10.3545L19.9443 7.97599V7.97122ZM3.32641 5.0435C3.32641 4.11695 4.07296 3.36233 4.98962 3.36233H8.98225V0H4.98962C2.23493 0 0 2.25907 0 5.04828V9.08403H3.32641V5.04828V5.0435ZM23.2943 5.0435V9.07926H26.6207V5.0435C26.6207 2.25907 24.3858 0 21.6311 0H17.6385V3.36233H21.6311C22.5525 3.36233 23.2943 4.11695 23.2943 5.0435ZM23.2943 17.8242V21.8599C23.2943 22.7913 22.5478 23.5411 21.6311 23.5411H17.6385V26.9034H21.6311C24.3858 26.9034 26.6207 24.6444 26.6207 21.8552V17.8194H23.2943V17.8242ZM3.32641 21.8599V17.8242H0V21.8599C0 24.6492 2.23493 26.9082 4.98962 26.9082H8.98225V23.5459H4.98962C4.06824 23.5459 3.32641 22.7913 3.32641 21.8647V21.8599Z" fill="#706F6F"/>
</svg>
