    <svg width="14" height="8" viewBox="0 0 14 8" fill="none" xmlns="http://www.w3.org/2000/svg">
    <path d="M13.4374 7.99935H11.9045C11.3248 7.99935 11.1502 7.54771 10.111 6.54751C9.2028 5.7056 8.81924 5.60093 8.58951 5.60093C8.27178 5.60093 8.18512 5.68493 8.18512 6.10555V7.43141C8.18512 7.79001 8.06421 8 7.09019 8C6.14525 7.93894 5.22891 7.66282 4.41665 7.19438C3.60439 6.72594 2.91945 6.07859 2.41825 5.30565C1.22862 3.8807 0.40063 2.20866 0 0.422217C0 0.201242 0.0873259 0.000942237 0.525299 0.000942237H2.05686C2.4505 0.000942237 2.59224 0.169582 2.74673 0.559197C3.49035 2.66428 4.75926 4.49541 5.27448 4.49541C5.47197 4.49541 5.55796 4.41141 5.55796 3.9378V1.76939C5.4928 0.780172 4.94668 0.696822 4.94668 0.338867C4.95358 0.24443 4.99849 0.156303 5.07187 0.0932048C5.14524 0.030107 5.2413 -0.00299062 5.33964 0.000942237H7.74715C8.0763 0.000942237 8.18512 0.158597 8.18512 0.537228V3.46419C8.18512 3.78014 8.32619 3.88481 8.4256 3.88481C8.62309 3.88481 8.77491 3.78014 9.13697 3.43252C9.91276 2.52191 10.5468 1.50765 11.0192 0.421571C11.0673 0.29103 11.1586 0.179268 11.2791 0.103411C11.3996 0.0275537 11.5426 -0.00821415 11.6862 0.00158832H13.2184C13.6779 0.00158832 13.7753 0.222564 13.6779 0.537874C13.1205 1.73857 12.4309 2.87838 11.6211 3.9378C11.4558 4.18009 11.39 4.30609 11.6211 4.59039C11.7729 4.81136 12.3103 5.24297 12.671 5.65327C13.1963 6.15724 13.6322 6.74005 13.9621 7.37843C14.0937 7.78936 13.8747 7.99935 13.4374 7.99935Z" fill="#26374D"/>
    </svg>
