<svg width="174" height="27" viewBox="0 0 174 27" fill="none" xmlns="http://www.w3.org/2000/svg">
<path d="M30.9961 0.0519652C32.7501 -0.295266 34.6221 1.14355 34.7246 2.99744C34.8251 4.42627 33.8176 5.74934 32.5335 6.19037C30.7234 6.84093 28.3873 5.46597 28.3989 3.39456C28.2906 1.79011 29.4819 0.327355 30.9961 0.0519652ZM133.886 0.0419873C135.692 -0.197482 137.423 1.54865 137.305 3.41053C137.38 4.60787 136.531 5.71941 135.458 6.10057C133.793 6.77308 131.507 5.91298 131.099 3.99523C130.629 2.15131 132.035 0.131788 133.886 0.0419873ZM36.759 0.267488C38.1495 0.213607 39.5418 0.233563 40.9342 0.25751C40.9555 8.93828 40.971 17.621 40.9246 26.3018C39.538 26.3298 38.1495 26.3497 36.7648 26.2938C36.7223 17.619 36.7339 8.94227 36.759 0.267488ZM45.1327 0.271479C46.9602 0.217598 48.7896 0.227576 50.6171 0.263497C53.1079 3.34667 55.564 6.45977 58.0587 9.54094C59.1126 10.9199 60.3445 12.1891 61.1026 13.7835C61.9515 15.6295 62.1759 17.7907 61.6673 19.7703C60.9556 22.7078 58.7529 25.1643 56.0474 26.2858C53.955 27.1699 51.5551 27.2158 49.422 26.4555C47.4108 25.6872 45.5755 24.2943 44.4655 22.3785C43.1446 20.3071 42.7733 17.643 43.4038 15.2583C44.0052 13.0133 45.4614 11.0356 47.3566 9.78241C48.5962 8.88639 50.0834 8.46333 51.5589 8.21787C50.242 6.47973 48.836 4.81541 47.4804 3.10919C46.6778 2.17925 45.9952 1.14355 45.1327 0.271479ZM51.5106 12.2968C49.9306 12.6042 48.4802 13.7077 47.8149 15.2283C47.0085 16.8308 47.1613 18.8803 48.1534 20.361C49.1938 21.9874 51.1219 22.8894 52.9919 22.7158C55.5234 22.5721 57.8614 20.2552 57.7782 17.5771C57.9078 15.7073 56.821 13.9053 55.2797 12.9833C54.158 12.2948 52.7908 12.0514 51.5106 12.2968ZM63.9357 0.23955C65.3242 0.185669 66.7127 0.215603 68.1012 0.215603C68.1341 3.30875 68.1187 6.4019 68.109 9.49505C68.8419 9.1977 69.4956 8.71877 70.2536 8.48129C72.2591 7.80479 74.4811 7.75291 76.4865 8.46134C78.9251 9.23762 80.9731 11.1474 82.0522 13.5241C83.1332 16.0385 83.1468 19.0479 81.9478 21.5204C80.5534 24.5018 77.6023 26.5792 74.4211 26.9145C71.441 27.2717 68.3217 26.0823 66.3163 23.7734C64.7344 22.0013 63.8525 19.5787 63.928 17.172C63.928 11.5285 63.9125 5.88305 63.9357 0.23955ZM72.2088 12.3188C70.3832 12.66 68.8129 14.1188 68.3236 15.9687C67.9214 17.4594 68.1477 19.1377 69.0082 20.4149C69.981 21.9135 71.7466 22.8056 73.489 22.7158C76.1055 22.7916 78.5248 20.4707 78.637 17.7707C78.8014 16.0106 77.9524 14.2306 76.5561 13.2228C75.3262 12.2729 73.694 12.0214 72.2088 12.3188ZM88.4823 9.87421C90.3388 8.48528 92.6788 7.81078 94.9646 8.00235C97.6508 8.11211 100.225 9.70458 101.596 12.0913C102.729 14.0011 102.959 16.3099 102.866 18.5051C98.2986 18.545 93.727 18.4931 89.1592 18.533C89.2307 20.1654 90.4278 21.5224 91.8086 22.1849C93.3847 22.9832 95.3205 22.7976 96.8154 21.8896C97.5715 21.4426 98.1323 20.7361 98.6506 20.0297C99.7606 20.8898 100.892 21.7459 101.899 22.7357C101.08 23.6956 100.271 24.6954 99.2114 25.3838C97.1441 26.8406 94.5024 27.3116 92.0619 26.8007C89.662 26.3118 87.4902 24.7453 86.2158 22.59C84.9994 20.6264 84.5527 18.1998 84.8563 15.8989C85.2044 13.4962 86.5523 11.2631 88.4823 9.87421ZM89.6678 14.955C92.5144 14.9749 95.3688 15.0288 98.2135 14.927C97.9157 14.2445 97.5367 13.566 96.9275 13.135C95.8581 12.227 94.3806 12.0933 93.0578 12.2709C91.5842 12.4725 90.1416 13.4583 89.6678 14.955ZM144.215 8.68284C146.191 7.84869 148.438 7.7569 150.492 8.34559C152.439 8.92231 154.201 10.2494 155.207 12.0813C156.359 13.9891 156.58 16.306 156.442 18.5031C151.888 18.541 147.334 18.5151 142.78 18.5151C142.932 20.5047 144.555 22.0891 146.375 22.5441C148.66 23.043 151.248 22.2129 152.652 20.2273C153.464 20.8798 154.238 21.5803 155.052 22.2328C155.212 22.3825 155.52 22.5821 155.369 22.8495C154.242 24.4998 152.615 25.771 150.776 26.4595C148.761 27.1759 146.522 27.1699 144.499 26.4794C142.37 25.7411 140.529 24.1426 139.494 22.0812C138.492 20.2293 138.235 18.0242 138.504 15.9428C138.98 12.7059 141.246 9.83429 144.215 8.68284ZM146.332 12.3467C144.965 12.5962 143.816 13.6339 143.286 14.941C146.116 15.0108 148.949 14.9789 151.78 14.9609C151.525 14.3503 151.248 13.7217 150.749 13.2807C149.587 12.1452 147.823 12.0494 146.332 12.3467ZM159.68 10.3192C161.453 8.49327 164.077 7.91854 166.508 7.97441C169.297 8.01433 171.944 9.30746 174 11.2033C173.244 12.2988 172.376 13.3066 171.538 14.3363C170.126 12.9494 168.305 11.8997 166.319 11.8418C165.133 11.788 163.82 11.9815 162.94 12.8756C162.461 13.3286 162.397 14.2545 162.983 14.6436C163.82 15.1585 164.824 15.1964 165.768 15.3221C167.939 15.5496 170.254 15.6674 172.143 16.9226C173.511 17.8026 174.081 19.5727 173.979 21.1712C174.015 22.9712 172.876 24.5557 171.459 25.4916C169.482 26.7808 167.038 27.12 164.746 26.9025C162.022 26.667 159.401 25.318 157.62 23.1727C158.504 22.2049 159.363 21.2091 160.312 20.3091C161.057 21.0335 161.797 21.7918 162.739 22.2388C164.412 23.061 166.41 23.3424 168.187 22.7118C168.73 22.5581 169.233 22.2388 169.589 21.7818C169.863 21.3887 169.74 20.8778 169.722 20.4328C169.277 20.0457 168.753 19.7503 168.171 19.6805C165.893 19.2913 163.501 19.455 161.322 18.559C160.333 18.1199 159.353 17.4594 158.908 16.4057C158.018 14.462 158.167 11.8977 159.68 10.3192ZM0 8.62697C1.53163 8.60103 3.06518 8.62697 4.59874 8.62298C5.84222 11.9995 7.17853 15.3401 8.44135 18.7106C9.74671 15.3421 10.9844 11.9436 12.3652 8.60901C13.3476 8.62697 14.33 8.59504 15.3124 8.6589C16.4998 12.0414 17.8516 15.362 19.097 18.7246C20.3443 15.3601 21.6884 12.0354 22.9222 8.66688C24.4306 8.57309 25.9467 8.59903 27.4571 8.6569C25.3163 14.5658 22.9918 20.4049 20.8104 26.2998C19.7912 26.3577 18.7663 26.4116 17.7529 26.2839C16.5443 22.7517 15.0784 19.3133 13.773 15.817C13.2644 16.8747 12.9299 18.0082 12.4909 19.0978C11.5491 21.4805 10.6324 23.8752 9.75057 26.2839C8.7527 26.3337 7.68907 26.4894 6.726 26.238C4.47691 20.371 2.24329 14.498 0 8.62697ZM29.4528 8.62298C30.8588 8.62298 32.2686 8.58506 33.6745 8.65092C33.6706 14.5339 33.6706 20.4149 33.6745 26.2958C32.2666 26.3557 30.8588 26.3198 29.4509 26.3158C29.5321 22.604 29.4664 18.8902 29.4877 15.1785C29.4683 12.9933 29.5321 10.8061 29.4509 8.62298H29.4528ZM105.065 8.63295C106.458 8.60302 107.85 8.60502 109.242 8.63495C109.295 9.95802 109.219 11.2851 109.293 12.6081C109.912 11.6163 110.629 10.6724 111.598 10.0219C113.133 8.90435 115.073 8.53118 116.922 8.63495C116.976 10.0678 116.96 11.5046 116.931 12.9394C115.189 13.0512 113.379 13.2986 111.898 14.3323C110.708 15.1246 109.836 16.3918 109.467 17.7987C109.194 18.7625 109.266 19.7743 109.262 20.7661C109.256 22.612 109.279 24.4599 109.237 26.3058C107.85 26.3238 106.462 26.3437 105.075 26.3078C105.032 20.4168 105.052 14.5239 105.065 8.63295ZM118.421 8.63894C119.803 8.60302 121.186 8.60901 122.569 8.62896C122.592 9.92609 122.559 11.2232 122.6 12.5203C123.222 11.782 123.721 10.9159 124.505 10.3332C126.104 8.98418 128.247 8.52519 130.271 8.65291C130.262 10.0877 130.256 11.5226 130.275 12.9574C128.581 13.0651 126.821 13.2607 125.357 14.2266C123.686 15.2283 122.646 17.18 122.588 19.1596C122.559 21.5384 122.588 23.9171 122.578 26.2958C121.194 26.3477 119.807 26.3317 118.421 26.2998C118.382 20.4129 118.382 14.5239 118.421 8.63894ZM132.097 8.63096C133.489 8.60502 134.882 8.60103 136.276 8.63495C136.301 14.5259 136.293 20.4168 136.28 26.3078C134.887 26.3417 133.493 26.3278 132.103 26.3038C132.066 20.4129 132.074 14.5219 132.097 8.63096Z" fill="#D633CA"/>
</svg>
