<svg width="87" height="48" viewBox="0 0 87 48" fill="none" xmlns="http://www.w3.org/2000/svg">
<g clip-path="url(#clip0_3010_12351)">
<path fill-rule="evenodd" clip-rule="evenodd" d="M21.9258 47.7852L25.5587 36.8842L29.9159 34.5864L25.5147 47.7852H21.9258Z" fill="#B91B28"/>
<path fill-rule="evenodd" clip-rule="evenodd" d="M28.1777 44.8538H38.0559C38.6066 44.8561 38.9792 44.8214 39.1736 44.7497C39.6016 44.5993 39.9117 44.2406 40.1015 43.6691C40.2981 43.079 40.2241 42.7018 39.877 42.5398C39.7451 42.475 39.3749 42.4427 38.7663 42.4427H28.9829L29.846 39.8487H39.3286C39.9117 39.851 40.319 39.7955 40.5504 39.6867C40.909 39.5178 41.1705 39.1916 41.3325 38.7033C41.5222 38.1318 41.4343 37.7685 41.0687 37.6134C40.9137 37.5486 40.5596 37.5163 40.0112 37.5163H30.6235L35.1913 34.5845H42.2002C43.4474 34.5868 44.2943 34.7441 44.7363 35.0611C45.1574 35.3643 45.3796 35.7924 45.4074 36.3477C45.4259 36.792 45.3171 37.3658 45.0834 38.0693C44.7016 39.217 44.1763 40.0246 43.5122 40.4966C43.1235 40.7674 42.5473 40.9664 41.7768 41.0959C42.6723 41.2001 43.0517 41.3967 43.3155 41.686C43.7251 42.1303 43.7251 42.9587 43.3225 44.1712C42.8018 45.7308 42.0035 46.7836 40.9299 47.3228C40.3097 47.6329 39.5623 47.7879 38.2827 47.7879H27.2012L28.1777 44.8561V44.8538Z" fill="#B91B28"/>
<path fill-rule="evenodd" clip-rule="evenodd" d="M27.2031 47.7833L30.836 36.8822L35.1909 34.5845L30.7921 47.7856L27.2031 47.7833Z" fill="#B91B28"/>
<path fill-rule="evenodd" clip-rule="evenodd" d="M43.7012 47.7852L47.3341 36.8842L51.6913 34.5864L47.2901 47.7852H43.7012Z" fill="#B91B28"/>
<path fill-rule="evenodd" clip-rule="evenodd" d="M64.6523 47.7852L68.2853 36.8842L72.6424 34.5864L68.2413 47.7852H64.6523Z" fill="#B91B28"/>
<path fill-rule="evenodd" clip-rule="evenodd" d="M87.0012 47.7854H83.1068L81.5981 37.4166L75.1537 45.4275L73.2355 47.7831H69.1953L80.1958 34.582L84.9811 34.5843L87.0012 47.7854Z" fill="#B91B28"/>
<path fill-rule="evenodd" clip-rule="evenodd" d="M75.5023 41.112L83.8256 41.0796L85.0543 44.3029L74.4355 44.3399L75.5023 41.112Z" fill="#B91B28"/>
<path fill-rule="evenodd" clip-rule="evenodd" d="M1.60956 44.3423C1.73683 44.3562 6.39482 44.3354 6.5406 44.3423C7.81327 44.4025 10.9556 44.3909 13.258 44.3423C14.9541 44.3123 15.7895 44.0647 16.3448 43.7962C16.8701 43.5394 17.7124 41.4476 17.9345 40.7881C18.2307 39.8972 18.1104 39.3373 17.5689 39.1105C17.2449 38.9717 16.6572 38.8976 15.808 38.886C15.6414 38.886 15.1138 38.8953 14.2299 38.886H9.51634C8.17193 38.886 7.02421 38.9855 6.07086 38.886C4.52977 38.7379 3.58799 38.0044 3.25015 37.0164C2.96322 36.1371 2.99793 35.1791 3.62501 33.2955C4.24747 31.4305 4.54828 30.8127 5.4299 29.9681C6.14722 29.2808 6.7072 29.0772 7.53559 28.7509C8.74348 28.2881 10.2475 28.3344 12.4574 28.2372C13.3228 28.1979 14.5492 28.1771 16.1389 28.1794C16.995 28.1794 24.0989 28.1863 24.7977 28.1956L23.0784 31.6387C22.7591 31.6295 15.3614 31.6387 14.9865 31.6387C12.8276 31.6387 11.1569 31.5508 9.97682 31.6387C9.10214 31.7082 8.49357 32.0182 8.14879 32.3422C7.85261 32.6268 7.63047 32.9855 7.487 33.4182C7.2047 34.2628 7.25098 35.2948 8.07243 35.5539C8.27143 35.6164 9.60195 35.5655 11.0181 35.5539H15.3197C16.2129 35.5539 17.4416 35.51 19.0984 35.5539C20.9773 35.6025 22.1228 36.0399 22.4398 37.1459C22.7128 38.0947 22.493 39.7098 21.8867 41.5263C21.1301 43.7962 20.1952 45.18 18.9827 46.138C18.0664 46.8576 16.7729 47.3135 15.1045 47.5009C13.3182 47.6976 11.0204 47.7971 8.20895 47.7948C6.86918 47.7948 1.17454 47.7809 0.167969 47.7554L1.61419 44.3493L1.60956 44.3423Z" fill="#B91B28"/>
<path d="M1.60956 44.3423C1.73683 44.3562 6.39482 44.3354 6.5406 44.3423C7.81327 44.4025 10.9556 44.3909 13.258 44.3423C14.9541 44.3123 15.7895 44.0647 16.3448 43.7962C16.8701 43.5394 17.7124 41.4476 17.9345 40.7881C18.2307 39.8972 18.1104 39.3373 17.5689 39.1105C17.2449 38.9717 16.6572 38.8976 15.808 38.886C15.6414 38.886 15.1138 38.8953 14.2299 38.886H9.51634C8.17193 38.886 7.02421 38.9855 6.07086 38.886C4.52977 38.7379 3.58799 38.0044 3.25015 37.0164C2.96322 36.1371 2.99793 35.1791 3.62501 33.2955C4.24747 31.4305 4.54828 30.8127 5.4299 29.9681C6.14722 29.2808 6.7072 29.0772 7.53559 28.7509C8.74348 28.2881 10.2475 28.3344 12.4574 28.2372C13.3228 28.1979 14.5492 28.1771 16.1389 28.1794C16.995 28.1794 24.0989 28.1863 24.7977 28.1956L23.0784 31.6387C22.7591 31.6295 15.3614 31.6387 14.9865 31.6387C12.8276 31.6387 11.1569 31.5508 9.97681 31.6387C9.10214 31.7082 8.49357 32.0182 8.14879 32.3422C7.85261 32.6268 7.63047 32.9855 7.487 33.4182C7.2047 34.2628 7.25098 35.2948 8.07243 35.5539C8.27143 35.6164 9.60195 35.5655 11.0181 35.5539H15.3197C16.2129 35.5539 17.4416 35.51 19.0984 35.5539C20.9773 35.6025 22.1228 36.0399 22.4398 37.1459C22.7128 38.0947 22.493 39.7098 21.8867 41.5263C21.1301 43.7962 20.1952 45.18 18.9827 46.138C18.0664 46.8576 16.7729 47.3135 15.1045 47.5009C13.3182 47.6976 11.0204 47.7971 8.20896 47.7948C6.86918 47.7948 1.17454 47.7809 0.167969 47.7554L1.61419 44.3493L1.60956 44.3423Z" stroke="#BB1B28" stroke-width="0.697514" stroke-miterlimit="10"/>
<path d="M49.3171 47.7833L51.4668 41.332H60.2297C60.7966 41.3343 61.2224 41.2834 61.5024 41.1792C61.7963 41.0705 62.0601 40.846 62.2915 40.5128C62.4141 40.3323 62.5506 40.0199 62.6987 39.5734C62.9509 38.819 62.9509 38.3192 62.6987 38.0739C62.5576 37.9443 62.3586 37.8633 62.0994 37.8309C61.9953 37.8171 61.7616 37.8124 61.4006 37.8124H52.6376L59.0033 34.5845H62.7149C63.6382 34.5845 64.2653 34.603 64.5985 34.6331C65.4361 34.7164 66.0262 34.9292 66.371 35.2717C66.8569 35.7738 67.0073 36.5189 66.8199 37.507C66.7157 38.0623 66.5422 38.7033 66.2992 39.4322C65.8225 40.8645 65.3389 41.9174 64.8507 42.5954C64.2259 43.4539 63.4993 44.0069 62.6709 44.2591C62.3192 44.3656 61.8472 44.4419 61.2502 44.4882L63.5155 47.7856H59.7692L57.5409 44.5391H53.9682L52.8852 47.7833H49.3125H49.3171Z" fill="#B91B28"/>
<path d="M76.7042 1.585C76.7157 1.58962 76.7296 1.57805 76.725 1.56648C76.6579 1.35129 76.2876 0.157287 76.6324 0.104066C78.1619 -0.131957 79.3837 1.09212 79.8488 1.65441C80.027 1.86961 80.2237 2.11489 80.4805 2.22365C80.4898 2.22827 80.499 2.23059 80.506 2.23522L80.5777 2.2653L80.5962 2.27455C80.8068 2.36711 80.9595 2.42959 81.1469 2.5152C81.3552 2.61008 81.5611 2.70958 81.7648 2.8137C81.9244 2.89469 82.0795 2.98031 82.2276 3.06593C82.3826 3.15617 82.5353 3.25336 82.6788 3.35517C83.0953 3.64904 83.3568 3.89663 83.5257 4.21133C83.6946 4.52603 83.7525 4.88006 83.7617 5.38219C83.7663 5.62516 83.9445 5.97688 84.1065 6.29158C84.1805 6.43967 84.3101 6.71734 84.3101 6.71734L84.3518 6.85155C84.3703 6.87701 84.4073 6.90709 84.442 6.93717C84.5346 7.01353 84.6294 7.0922 84.7012 7.23567C84.7336 7.30277 84.7544 7.36988 84.7636 7.43467C84.7636 7.44624 84.766 7.45549 84.766 7.46706C84.8169 7.52491 84.8631 7.58739 84.9025 7.65218C84.9696 7.76325 85.0182 7.88126 85.039 8.00853V8.01547C85.0922 8.32091 84.995 8.5847 84.8308 8.81378C84.6873 9.01278 84.4952 9.17476 84.3147 9.30897C84.3009 9.32054 84.287 9.32979 84.2777 9.33674C84.2661 9.34599 84.25 9.35756 84.2314 9.36913L84.2245 9.37376C83.9144 9.57045 83.683 9.50797 83.4609 9.44781C83.4216 9.43855 83.3845 9.42698 83.3498 9.42235L83.3429 9.43161C83.3429 9.43161 83.3313 9.44549 83.3267 9.45243C83.2364 9.57276 83.1231 9.67689 82.9958 9.76482C82.6857 9.98464 82.29 9.70928 82.2785 9.70697C80.8346 9.54962 80.7258 9.68614 80.3625 10.0379C80.2306 10.1651 80.0547 10.3896 80.0756 10.5724L80.0825 10.6302C80.1033 10.82 79.9391 11.0815 79.7447 11.2296C79.0482 11.7641 78.2985 11.5535 78.0115 11.4679C77.0489 11.1856 77.2641 9.73011 77.2456 9.58433C77.1947 9.42004 77.0443 9.29971 76.7944 9.22798C76.4728 9.13542 76.0123 9.11691 75.413 9.17707C75.214 9.22798 75.0103 9.31823 74.816 9.42698C74.6077 9.54499 74.4064 9.68383 74.2305 9.81804C74.0015 9.9939 72.5251 11.2573 71.7176 11.4818C71.7176 11.4818 73.8163 12.0186 74.8298 12.331C81.2349 14.3025 80.9919 16.3341 80.5106 16.8617C79.8396 17.5975 78.9764 17.3985 78.8769 17.2944C78.627 17.0353 78.3447 16.5354 78.0671 16.0865C76.6579 13.7865 72.7751 14.9481 66.1641 13.916C66.1641 13.916 62.7279 15.67 55.3163 15.3299C49.1542 15.0476 49.735 21.0037 43.1727 23.2829C42.3396 23.5722 41.4719 23.7457 40.5972 23.8614C37.0014 24.3358 35.3052 25.5946 32.5192 29.1395C30.4482 31.7775 30.513 32.0898 29.0599 32.3976C28.4351 32.5295 27.5813 32.4693 27.1254 32.3698C26.6163 32.2588 26.2206 31.7219 26.4451 31.0509C26.9704 29.4704 27.9862 28.2996 28.6063 28.2626C29.7749 28.1931 30.4344 28.5911 32.8108 24.1368C33.579 22.6975 33.6137 22.0982 33.6137 22.0982C35.2219 21.2189 37.2559 21.0315 39.6508 16.3897C40.5024 14.7375 40.8795 13.3052 41.8144 12.4953C40.7824 12.1019 37.6979 12.2176 32.5586 12.8424C27.3707 13.2381 24.6888 13.0946 23.0459 9.17013C22.833 8.24687 23.5966 7.70771 24.3926 7.99927C25.4408 8.44124 25.3182 8.95494 26.6163 10.1443C27.3221 10.7922 29.6384 11.3452 32.709 11.0953C33.3407 11.0444 33.9654 10.9426 34.581 10.7968C39.3685 9.663 42.8996 9.08452 45.8661 8.94105C47.7474 8.84849 51.6278 7.49715 56.8366 4.70189C68.2119 -1.40232 76.1442 1.37905 76.6995 1.585" fill="white"/>
<path d="M76.7042 1.585C76.7157 1.58962 76.7296 1.57805 76.725 1.56648C76.6579 1.35129 76.2876 0.157287 76.6324 0.104066C78.1619 -0.131957 79.3837 1.09212 79.8488 1.65441C80.027 1.86961 80.2237 2.11489 80.4805 2.22365C80.4898 2.22827 80.499 2.23059 80.506 2.23522L80.5777 2.2653L80.5962 2.27455C80.8068 2.36711 80.9595 2.42959 81.1469 2.5152C81.3552 2.61008 81.5611 2.70958 81.7648 2.8137C81.9244 2.89469 82.0795 2.98031 82.2276 3.06593C82.3826 3.15617 82.5353 3.25336 82.6788 3.35517C83.0953 3.64904 83.3568 3.89663 83.5257 4.21133C83.6946 4.52603 83.7525 4.88006 83.7617 5.38219C83.7663 5.62516 83.9445 5.97688 84.1065 6.29158C84.1805 6.43967 84.3101 6.71734 84.3101 6.71734L84.3518 6.85155C84.3703 6.87701 84.4073 6.90709 84.442 6.93717C84.5346 7.01353 84.6294 7.0922 84.7012 7.23567C84.7336 7.30277 84.7544 7.36988 84.7636 7.43467C84.7636 7.44624 84.766 7.45549 84.766 7.46706C84.8169 7.52491 84.8631 7.58739 84.9025 7.65218C84.9696 7.76325 85.0182 7.88126 85.039 8.00853V8.01547C85.0922 8.32091 84.995 8.5847 84.8308 8.81378C84.6873 9.01278 84.4952 9.17476 84.3147 9.30897C84.3009 9.32054 84.287 9.3298 84.2777 9.33674C84.2661 9.34599 84.25 9.35756 84.2314 9.36913L84.2245 9.37376C83.9144 9.57045 83.683 9.50797 83.4609 9.44781C83.4216 9.43855 83.3845 9.42698 83.3498 9.42235L83.3429 9.43161C83.3429 9.43161 83.3313 9.44549 83.3267 9.45243C83.2364 9.57276 83.1231 9.67689 82.9958 9.76482C82.6857 9.98464 82.29 9.70928 82.2785 9.70697C80.8346 9.54962 80.7258 9.68614 80.3625 10.0379C80.2306 10.1651 80.0547 10.3896 80.0756 10.5724L80.0825 10.6302C80.1033 10.82 79.9391 11.0815 79.7447 11.2296C79.0482 11.7641 78.2985 11.5535 78.0115 11.4679C77.0489 11.1856 77.2641 9.73011 77.2456 9.58433C77.1947 9.42004 77.0443 9.29971 76.7944 9.22798C76.4728 9.13542 76.0123 9.11691 75.413 9.17707C75.214 9.22798 75.0103 9.31823 74.816 9.42698C74.6077 9.54499 74.4064 9.68383 74.2305 9.81804C74.0015 9.9939 72.5251 11.2573 71.7176 11.4818C71.7176 11.4818 73.8163 12.0186 74.8298 12.331C81.2349 14.3025 80.9919 16.3341 80.5106 16.8617C79.8396 17.5975 78.9764 17.3985 78.8769 17.2944C78.627 17.0353 78.3447 16.5354 78.0671 16.0865C76.6579 13.7865 72.7751 14.9481 66.1641 13.9161C66.1641 13.9161 62.7279 15.67 55.3163 15.3299C49.1542 15.0476 49.735 21.0037 43.1727 23.2829C42.3396 23.5722 41.4719 23.7457 40.5972 23.8614C37.0014 24.3358 35.3052 25.5946 32.5192 29.1395C30.4482 31.7775 30.513 32.0898 29.0599 32.3976C28.4351 32.5295 27.5813 32.4693 27.1254 32.3698C26.6163 32.2588 26.2206 31.7219 26.4451 31.0509C26.9704 29.4704 27.9862 28.2996 28.6063 28.2626C29.7749 28.1931 30.4344 28.5911 32.8108 24.1368C33.579 22.6975 33.6137 22.0982 33.6137 22.0982C35.2219 21.2189 37.2559 21.0315 39.6508 16.3897C40.5024 14.7375 40.8795 13.3052 41.8144 12.4953C40.7824 12.1019 37.6979 12.2176 32.5586 12.8424C27.3707 13.2381 24.6888 13.0946 23.0459 9.17013C22.833 8.24687 23.5966 7.70771 24.3926 7.99927C25.4408 8.44124 25.3182 8.95494 26.6163 10.1443C27.3221 10.7922 29.6384 11.3452 32.709 11.0953C33.3407 11.0444 33.9654 10.9426 34.581 10.7968C39.3685 9.663 42.8996 9.08452 45.8661 8.94105C47.7474 8.84849 51.6278 7.49715 56.8366 4.70189C68.2119 -1.40232 76.1442 1.37905 76.6995 1.585H76.7042Z" stroke="#B70714" stroke-width="0.469905" stroke-miterlimit="22.93"/>
<path fill-rule="evenodd" clip-rule="evenodd" d="M84.4407 7.7379C84.3181 7.71708 84.0589 7.65229 83.9733 7.51345C83.9641 7.49956 84.251 7.64072 84.3875 7.62683C84.3991 7.31908 84.0682 7.2566 84.0057 7.08999C83.8877 7.0576 83.7604 6.98355 83.7026 6.91413C83.6933 6.90488 83.8437 6.96504 83.9802 6.99512L83.927 6.88405C83.7465 6.45134 83.3555 5.86823 83.3462 5.38924C83.33 4.58398 83.219 4.25772 82.4484 3.71162C81.458 3.0105 80.146 2.64952 79.7712 2.17284C79.1441 1.37453 78.4522 0.615554 76.9458 0.370275C76.8834 0.361019 76.8232 0.409612 76.8232 0.472089C76.8209 0.974217 77.0153 1.36296 77.2119 1.95302C77.249 2.06409 77.1286 2.03401 77.0777 2.02244C75.8166 1.74014 74.9535 1.32594 72.1791 1.19404C71.5937 1.16627 72.2092 1.88129 71.9523 2.24458C70.8509 3.79724 71.1517 6.73596 71.478 8.54779C71.6631 9.57055 70.7282 11.4518 71.67 11.0492C72.7692 10.5771 73.4356 9.73716 74.2825 9.22577C74.8262 8.89719 75.4626 8.75373 76.0943 8.80463C76.2077 8.81389 76.3095 8.82083 76.3859 8.82315C75.6269 8.04566 73.9215 7.40006 72.7576 7.05991L72.7645 7.05066C75.4094 7.20338 76.4877 8.45291 77.2212 9.02677C77.3091 9.09619 77.131 8.79306 77.1865 7.90682C77.2027 7.62452 77.2304 7.58287 77.2258 7.5551C77.2189 7.5227 77.1842 7.50419 77.0176 7.19412C76.2586 5.77798 76.8278 4.55159 77.3531 4.19293C76.7746 4.87323 76.7561 6.70356 77.3693 7.17561C77.6331 6.64109 78.4916 6.37036 78.8803 6.58787C78.8803 6.58787 77.8575 6.60638 77.5081 7.53659C77.3415 7.98549 77.4757 9.37387 77.5382 9.85748C77.5706 10.1004 77.5914 10.3156 77.603 10.4846C77.6261 10.7993 77.8344 11.0723 78.1352 11.1649C78.7415 11.3523 79.5884 11.1949 79.7758 10.6627C79.7689 10.6489 79.7642 10.6419 79.755 10.628C78.598 10.4244 78.642 9.32759 78.716 8.95967C78.9705 7.71708 80.0974 7.70782 80.861 8.04103L80.8541 8.0364C80.8657 8.04103 80.8749 8.04566 80.8865 8.0526C80.9073 8.06186 80.9258 8.07111 80.9443 8.08037C82.0712 8.59869 82.2008 9.18181 82.2147 9.31833C82.3073 9.3461 82.4068 9.38081 82.5132 9.41089C82.9691 9.49651 83.1241 9.20032 83.1889 8.99438C83.3092 8.93422 83.4342 9.01058 83.5799 9.04066C83.9571 9.11933 84.1584 9.01289 84.3528 8.71208L84.1052 8.58944C83.9525 8.74447 83.735 8.9157 83.5082 8.8162C83.6933 8.73984 83.8136 8.67274 83.8622 8.45523L83.1657 7.93227C83.6956 8.20995 84.2255 8.36498 84.5842 8.34416C84.6374 8.13127 84.6189 7.93459 84.4407 7.7379ZM77.876 2.01781C77.957 2.08491 78.3134 2.12194 78.4823 2.12657C78.3088 1.38147 78.0357 1.23801 77.448 0.844635C78.3967 1.02281 79.2459 1.89054 79.1695 2.80918C78.8896 2.77679 78.0311 2.37184 77.876 2.01781ZM79.9679 7.03677C79.8545 7.16867 79.7457 7.31676 79.6416 7.4556C79.7226 7.26123 79.8128 7.08768 79.9216 6.92802C80.0905 6.66654 80.2895 6.44903 80.5093 6.28937C80.352 6.2292 79.7457 5.97698 79.3917 5.87748C79.0353 5.77798 78.6859 5.70625 78.3689 5.67848C79.1811 5.54427 80.3774 6.01401 80.7083 6.16441C80.8194 6.10425 80.9374 6.05566 81.0577 6.02326C80.5463 5.48874 79.3547 4.85009 78.9659 4.66497C80.1252 4.83852 81.2243 5.90756 81.2961 5.9793C81.4071 5.96773 81.5182 5.97004 81.6339 5.98393C81.3585 5.18561 79.7642 4.07029 79.6092 3.93608C79.91 4.06566 80.271 4.29937 80.5764 4.53308C81.1248 4.9519 81.6084 5.47254 81.9787 6.05334C81.9972 6.06491 82.0134 6.07417 82.0319 6.08805C82.1545 6.11582 82.4415 6.27086 82.5109 6.33565C82.5456 6.36804 82.6891 6.78687 82.6844 6.81695C81.8491 6.07186 80.6921 6.19218 79.9702 7.03909M83.6285 7.51576C83.2745 6.88405 83.1241 6.45134 82.9945 5.75253C83.0454 5.83352 83.3462 6.88637 83.8368 7.5551C83.9247 7.67311 84.0682 7.77955 84.1052 7.9207C83.7766 7.7703 83.8946 7.99244 83.6285 7.51808" fill="#B70714"/>
<path fill-rule="evenodd" clip-rule="evenodd" d="M74.1624 9.3044C68.6737 6.90946 76.37 1.71695 74.2712 1.40225C67.8245 0.435016 62.7454 1.98305 58.6821 6.2199C58.6821 6.2199 59.3485 4.42196 60.885 3.33671C58.9505 4.0147 54.3134 6.46749 49.6345 8.47137C46.9573 9.62372 44.8863 9.33217 42.9033 9.49183C40.7073 9.66769 40.5777 9.98239 37.0513 10.6673C35.7693 10.9172 34.0501 11.1694 32.6825 11.306C24.431 12.1182 25.6088 8.5084 24.0214 8.17056C23.1352 7.98082 22.6585 8.69814 23.4383 9.98701C25.3589 13.1641 27.9783 13.333 34.7558 12.5925C37.5788 12.2848 41.3668 11.4355 42.4821 12.2709C42.6672 12.4097 40.8577 13.7611 40.0872 16.3272C38.6895 19.377 37.4146 21.1194 34.6077 22.0057C36.1072 22.0728 37.484 21.7581 39.1917 20.7816C39.3375 20.6983 38.435 21.8275 37.1623 22.2232C35.9614 22.5981 34.2213 22.3898 34.2213 22.3875C33.6474 24.0582 31.3451 29.0285 29.2671 28.7023C28.4202 28.5681 28.0616 29.1512 27.1105 30.4609C26.7889 30.9028 26.4117 32.0413 26.7843 32.2218C27.6798 32.6568 30.2853 32.8396 31.4446 30.5581C33.7192 27.3139 36.3525 24.4515 39.3004 24.0813C43.7548 23.5213 46.5362 20.7515 49.2227 17.7665C51.4117 14.9342 52.5409 14.321 55.6647 14.5501C61.9934 15.0152 65.4944 13.886 65.8392 13.3284C64.3929 9.23729 67.614 8.47832 67.614 8.47832C65.7952 10.2554 65.9201 11.0514 66.4917 13.3122C66.6282 13.8536 72.6838 13.4718 76.0738 14.5339C77.9596 15.1263 78.1216 16.3781 78.9847 17.394C79.0773 17.5004 79.9589 17.3546 80.38 17.0006C81.0927 16.3967 80.6091 15.2675 79.7206 14.6057C78.2558 13.5158 71.7906 11.8613 70.1223 11.4471C70.0783 11.4355 70.0876 11.3731 70.1339 11.3708C72.3205 11.2736 72.2905 10.5239 74.1694 9.30208" fill="#B70714"/>
<path fill-rule="evenodd" clip-rule="evenodd" d="M79.6826 10.318C80.1315 10.0936 80.2171 9.60765 80.2171 9.60765C80.2171 9.60765 79.5808 10.0635 79.2638 9.60071C78.801 8.92503 79.4142 7.29369 81.152 8.33729C81.3463 8.4553 81.7119 8.7214 81.6171 8.78851C81.5708 8.83941 81.5106 8.88801 81.4204 8.92734C81.1543 9.04767 80.9136 9.05924 80.6359 9.11246C81.0687 9.27907 81.897 9.29758 82.2303 9.12634C81.6471 8.29101 80.9969 7.74954 80.0413 7.79351C79.2638 7.82822 78.7593 8.20771 78.7501 9.11709C78.7454 9.51972 78.963 10.1537 79.6826 10.3134" fill="#B70714"/>
<path fill-rule="evenodd" clip-rule="evenodd" d="M82.7754 5.63217C82.5694 5.72705 82.1599 5.77332 82.0141 5.37532C81.8868 5.0236 81.8961 4.68114 82.0696 4.25537C82.0696 4.25537 82.1899 4.82692 82.7754 5.63217Z" fill="white"/>
</g>
<defs>
<clipPath id="clip0_3010_12351">
<rect width="87" height="47.8988" fill="white"/>
</clipPath>
</defs>
</svg>
