<svg width="86" height="73" viewBox="0 0 86 73" fill="none" xmlns="http://www.w3.org/2000/svg">
<path d="M74.8516 60.2672V56.0308H75.7609V59.4877H78.2724V60.2672H74.8516Z" fill="black"/>
<path d="M72.963 60.2672H71.9454L71.4546 59.3073H69.0513L68.5606 60.2672H67.543L69.7297 56.0308H70.769L72.963 60.2672ZM70.2494 56.9329L69.3978 58.6217H71.101L70.2494 56.9329Z" fill="black"/>
<path d="M65.6778 60.2672H64.7613L62.3435 57.2793V60.2672H61.4414V56.0308H62.358L64.7757 59.0258V56.0308H65.6778V60.2672Z" fill="black"/>
<path d="M54.5469 58.7588V57.5391C54.5469 56.9858 54.6575 56.5961 54.8789 56.37C55.105 56.1438 55.5356 56.0308 56.1707 56.0308H57.3976C58.0375 56.0308 58.4681 56.1438 58.6895 56.37C58.9156 56.5961 59.0287 56.9858 59.0287 57.5391V58.7588C59.0287 59.3121 58.9156 59.7018 58.6895 59.928C58.4681 60.1541 58.0375 60.2672 57.3976 60.2672H56.1707C55.5356 60.2672 55.105 60.1541 54.8789 59.928C54.6575 59.7018 54.5469 59.3121 54.5469 58.7588ZM58.1265 58.7805V57.5247C58.1265 57.2504 58.0736 57.0628 57.9678 56.9618C57.8619 56.8607 57.6719 56.8102 57.3976 56.8102H56.1707C55.8965 56.8102 55.7064 56.8607 55.6006 56.9618C55.4995 57.0628 55.449 57.2504 55.449 57.5247V58.7805C55.449 59.0499 55.4995 59.2351 55.6006 59.3362C55.7064 59.4372 55.8965 59.4877 56.1707 59.4877H57.3976C57.6719 59.4877 57.8619 59.4396 57.9678 59.3434C58.0736 59.2424 58.1265 59.0547 58.1265 58.7805Z" fill="black"/>
<path d="M52.1287 60.2672H51.2266V56.0308H52.1287V60.2672Z" fill="black"/>
<path d="M48.6753 56.0308V56.8102H46.4452C46.1614 56.8102 45.9593 56.8463 45.839 56.9185C45.7187 56.9858 45.6586 57.1085 45.6586 57.2865C45.6586 57.4597 45.7187 57.5824 45.839 57.6546C45.9641 57.722 46.1662 57.7556 46.4452 57.7556H47.2969C47.9271 57.7556 48.3674 57.8567 48.6176 58.0588C48.8678 58.2608 48.9929 58.576 48.9929 59.0042C48.9929 59.4324 48.8678 59.75 48.6176 59.9568C48.3674 60.1637 47.9271 60.2672 47.2969 60.2672H44.7637V59.4877H47.2969C47.5807 59.4877 47.7828 59.4541 47.9031 59.3867C48.0282 59.3145 48.0907 59.1894 48.0907 59.0114C48.0907 58.8334 48.0282 58.7107 47.9031 58.6433C47.7828 58.576 47.5807 58.5423 47.2969 58.5423H46.4452C45.8198 58.5423 45.3819 58.4413 45.1317 58.2392C44.8864 58.0371 44.7637 57.722 44.7637 57.2937C44.7637 56.8655 44.8864 56.548 45.1317 56.3411C45.3819 56.1342 45.8198 56.0308 46.4452 56.0308H48.6753Z" fill="black"/>
<path d="M42.4468 56.0308V56.8102H40.2167C39.9329 56.8102 39.7308 56.8463 39.6105 56.9185C39.4902 56.9858 39.4301 57.1085 39.4301 57.2865C39.4301 57.4597 39.4902 57.5824 39.6105 57.6546C39.7356 57.722 39.9377 57.7556 40.2167 57.7556H41.0683C41.6986 57.7556 42.1389 57.8567 42.3891 58.0588C42.6393 58.2608 42.7644 58.576 42.7644 59.0042C42.7644 59.4324 42.6393 59.75 42.3891 59.9568C42.1389 60.1637 41.6986 60.2672 41.0683 60.2672H38.5352V59.4877H41.0683C41.3522 59.4877 41.5543 59.4541 41.6746 59.3867C41.7997 59.3145 41.8622 59.1894 41.8622 59.0114C41.8622 58.8334 41.7997 58.7107 41.6746 58.6433C41.5543 58.576 41.3522 58.5423 41.0683 58.5423H40.2167C39.5913 58.5423 39.1534 58.4413 38.9032 58.2392C38.6578 58.0371 38.5352 57.722 38.5352 57.2937C38.5352 56.8655 38.6578 56.548 38.9032 56.3411C39.1534 56.1342 39.5913 56.0308 40.2167 56.0308H42.4468Z" fill="black"/>
<path d="M36.4382 59.4877V60.2672H33.8328C33.1977 60.2672 32.7671 60.1541 32.541 59.928C32.3196 59.7018 32.209 59.3121 32.209 58.7588V57.5391C32.209 56.9858 32.3196 56.5961 32.541 56.37C32.7671 56.1438 33.1977 56.0308 33.8328 56.0308H36.4382V56.8102H33.8328C33.5586 56.8102 33.3685 56.8607 33.2627 56.9618C33.1616 57.0628 33.1111 57.2504 33.1111 57.5247V57.7484H36.1206V58.5351H33.1111V58.7805C33.1111 59.0499 33.1616 59.2351 33.2627 59.3362C33.3685 59.4372 33.5586 59.4877 33.8328 59.4877H36.4382Z" fill="black"/>
<path d="M27.3064 60.2672H26.4043V56.0308H30.2654V56.8102H27.3064V57.7484H29.9479V58.5351H27.3064V60.2672Z" fill="black"/>
<path d="M19.582 58.7588V57.5391C19.582 56.9858 19.6927 56.5961 19.914 56.37C20.1402 56.1438 20.5708 56.0308 21.2059 56.0308H22.4328C23.0727 56.0308 23.5033 56.1438 23.7246 56.37C23.9508 56.5961 24.0638 56.9858 24.0638 57.5391V58.7588C24.0638 59.3121 23.9508 59.7018 23.7246 59.928C23.5033 60.1541 23.0727 60.2672 22.4328 60.2672H21.2059C20.5708 60.2672 20.1402 60.1541 19.914 59.928C19.6927 59.7018 19.582 59.3121 19.582 58.7588ZM23.1617 58.7805V57.5247C23.1617 57.2504 23.1088 57.0628 23.0029 56.9618C22.8971 56.8607 22.707 56.8102 22.4328 56.8102H21.2059C20.9316 56.8102 20.7416 56.8607 20.6357 56.9618C20.5347 57.0628 20.4842 57.2504 20.4842 57.5247V58.7805C20.4842 59.0499 20.5347 59.2351 20.6357 59.3362C20.7416 59.4372 20.9316 59.4877 21.2059 59.4877H22.4328C22.707 59.4877 22.8971 59.4396 23.0029 59.3434C23.1088 59.2424 23.1617 59.0547 23.1617 58.7805Z" fill="black"/>
<path d="M17.3993 60.2672H16.1508L14.9022 58.9465H14.2166V60.2672H13.3145V56.0308H15.8043C16.4346 56.0308 16.8628 56.139 17.089 56.3555C17.3151 56.5672 17.4282 56.9209 17.4282 57.4164V57.568C17.4282 58.0106 17.3319 58.3402 17.1395 58.5567C16.9518 58.7732 16.6078 58.9007 16.1075 58.9392L17.3993 60.2672ZM15.8043 56.8102H14.2166V58.1742H15.8043C16.0834 58.1742 16.2734 58.1357 16.3745 58.0588C16.4755 57.9818 16.526 57.823 16.526 57.5824V57.402C16.526 57.1662 16.4755 57.0099 16.3745 56.9329C16.2734 56.8511 16.0834 56.8102 15.8043 56.8102Z" fill="black"/>
<path d="M8.0076 60.2672H7.10547V56.0308H9.5304C10.1607 56.0308 10.5889 56.1414 10.815 56.3627C11.0412 56.5841 11.1542 56.957 11.1542 57.4814V57.6257C11.1542 58.155 11.0412 58.5303 10.815 58.7516C10.5889 58.9681 10.1607 59.0764 9.5304 59.0764H8.0076V60.2672ZM9.5304 56.8102H8.0076V58.2969H9.5304C9.81427 58.2969 10.0043 58.256 10.1005 58.1742C10.2016 58.0924 10.2521 57.9168 10.2521 57.6474V57.4597C10.2521 57.1903 10.2016 57.0147 10.1005 56.9329C10.0043 56.8511 9.81427 56.8102 9.5304 56.8102Z" fill="black"/>
<path d="M85.0786 71.1238V72.504H80.4652C79.3406 72.504 78.5781 72.3038 78.1777 71.9034C77.7858 71.5029 77.5898 70.8129 77.5898 69.8331V67.6734C77.5898 66.6936 77.7858 66.0035 78.1777 65.6031C78.5781 65.2027 79.3406 65.0024 80.4652 65.0024H85.0786V66.3826H80.4652C79.9796 66.3826 79.6431 66.4721 79.4556 66.651C79.2767 66.8299 79.1873 67.1622 79.1873 67.6478V68.044H84.5163V69.4369H79.1873V69.8714C79.1873 70.3485 79.2767 70.6765 79.4556 70.8554C79.6431 71.0344 79.9796 71.1238 80.4652 71.1238H85.0786Z" fill="black"/>
<path d="M68.7895 66.3826V65.0024H75.831V66.4082L70.7959 71.1238H75.946V72.504H68.5723V71.0983L73.5818 66.3826H68.7895Z" fill="black"/>
<path d="M67.0064 71.1238V72.504H62.393C61.2684 72.504 60.5059 72.3038 60.1054 71.9034C59.7135 71.5029 59.5176 70.8129 59.5176 69.8331V67.6734C59.5176 66.6936 59.7135 66.0035 60.1054 65.6031C60.5059 65.2027 61.2684 65.0024 62.393 65.0024H67.0064V66.3826H62.393C61.9073 66.3826 61.5708 66.4721 61.3834 66.651C61.2045 66.8299 61.115 67.1622 61.115 67.6478V68.044H66.4441V69.4369H61.115V69.8714C61.115 70.3485 61.2045 70.6765 61.3834 70.8554C61.5708 71.0344 61.9073 71.1238 62.393 71.1238H67.0064Z" fill="black"/>
<path d="M57.6958 71.1238V72.504H53.0824C51.9578 72.504 51.1953 72.3038 50.7949 71.9034C50.403 71.5029 50.207 70.8129 50.207 69.8331V67.6734C50.207 66.6936 50.403 66.0035 50.7949 65.6031C51.1953 65.2027 51.9578 65.0024 53.0824 65.0024H57.6958V66.3826H53.0824C52.5968 66.3826 52.2603 66.4721 52.0728 66.651C51.8939 66.8299 51.8045 67.1622 51.8045 67.6478V68.044H57.1335V69.4369H51.8045V69.8714C51.8045 70.3485 51.8939 70.6765 52.0728 70.8554C52.2603 71.0344 52.5968 71.1238 53.0824 71.1238H57.6958Z" fill="black"/>
<path d="M48.3738 72.504H46.163L43.9521 70.1654H42.7381V72.504H41.1406V65.0024H45.5495C46.6656 65.0024 47.4239 65.1941 47.8243 65.5775C48.2247 65.9524 48.4249 66.5786 48.4249 67.4561V67.7245C48.4249 68.5083 48.2545 69.0919 47.9138 69.4753C47.5815 69.8586 46.9723 70.0844 46.0863 70.1526L48.3738 72.504ZM45.5495 66.3826H42.7381V68.798H45.5495C46.0437 68.798 46.3802 68.7298 46.5591 68.5935C46.738 68.4572 46.8275 68.176 46.8275 67.75V67.4305C46.8275 67.0131 46.738 66.7362 46.5591 66.5999C46.3802 66.455 46.0437 66.3826 45.5495 66.3826Z" fill="black"/>
<path d="M34.2615 72.504H32.6641V65.0024H39.5011V66.3826H34.2615V68.044H38.9388V69.4369H34.2615V72.504Z" fill="black"/>
<path d="M30.2967 72.504H28.6992V65.0024H30.2967V72.504Z" fill="black"/>
<path d="M19.7969 66.3826V65.0024H27.2984V66.3826H24.3464V72.504H22.7489V66.3826H19.7969Z" fill="black"/>
<path d="M18.4645 72.504H16.8415L12.5603 67.2133V72.504H10.9629V65.0024H12.5859L16.867 70.3059V65.0024H18.4645V72.504Z" fill="black"/>
<path d="M9.66381 72.504H7.8619L6.99289 70.8043H2.73732L1.86831 72.504H0.0664062L3.93859 65.0024H5.77884L9.66381 72.504ZM4.85872 66.5999L3.35074 69.5903H6.3667L4.85872 66.5999Z" fill="black"/>
<g clip-path="url(#clip0_835_19699)">
<path fill-rule="evenodd" clip-rule="evenodd" d="M21.6719 47.2326L25.2628 36.4577L29.5695 34.1865L25.2193 47.2326H21.6719Z" fill="#B91B28"/>
<path fill-rule="evenodd" clip-rule="evenodd" d="M27.8519 44.3346H37.6159C38.1602 44.3369 38.5285 44.3026 38.7206 44.2317C39.1437 44.083 39.4502 43.7285 39.6378 43.1636C39.8322 42.5803 39.759 42.2075 39.4159 42.0474C39.2855 41.9834 38.9196 41.9514 38.3181 41.9514H28.6478L29.501 39.3874H38.8738C39.4502 39.3897 39.8528 39.3348 40.0815 39.2273C40.436 39.0604 40.6944 38.7379 40.8545 38.2553C41.0421 37.6903 40.9552 37.3312 40.5938 37.178C40.4406 37.114 40.0906 37.0819 39.5486 37.0819H30.2695L34.7844 34.1841H41.7122C42.945 34.1864 43.7821 34.3419 44.219 34.6552C44.6353 34.9549 44.8548 35.378 44.8823 35.9269C44.9006 36.3661 44.7931 36.9333 44.5621 37.6286C44.1847 38.763 43.6655 39.5612 43.0091 40.0278C42.6248 40.2954 42.0553 40.4921 41.2937 40.6202C42.1788 40.7231 42.5539 40.9175 42.8147 41.2034C43.2195 41.6426 43.2195 42.4614 42.8215 43.6599C42.3069 45.2014 41.5178 46.2421 40.4566 46.775C39.8436 47.0815 39.1049 47.2347 37.84 47.2347H26.8867L27.8519 44.3369V44.3346Z" fill="#B91B28"/>
<path fill-rule="evenodd" clip-rule="evenodd" d="M26.8887 47.2302L30.4795 36.4553L34.784 34.1841L30.4361 47.2325L26.8887 47.2302Z" fill="#B91B28"/>
<path fill-rule="evenodd" clip-rule="evenodd" d="M43.1953 47.2326L46.7862 36.4577L51.093 34.1865L46.7427 47.2326H43.1953Z" fill="#B91B28"/>
<path fill-rule="evenodd" clip-rule="evenodd" d="M63.9043 47.2326L67.4952 36.4577L71.8019 34.1865L67.4517 47.2326H63.9043Z" fill="#B91B28"/>
<path fill-rule="evenodd" clip-rule="evenodd" d="M85.9944 47.2326H82.1451L80.6538 36.9837L74.284 44.9019L72.388 47.2303H68.3945L79.2678 34.1819L83.9977 34.1842L85.9944 47.2326Z" fill="#B91B28"/>
<path fill-rule="evenodd" clip-rule="evenodd" d="M74.6286 40.6363L82.8556 40.6042L84.0701 43.7903L73.5742 43.8269L74.6286 40.6363Z" fill="#B91B28"/>
<path fill-rule="evenodd" clip-rule="evenodd" d="M1.59093 43.8292C1.71673 43.8429 6.32083 43.8223 6.46492 43.8292C7.72287 43.8886 10.8289 43.8772 13.1046 43.8292C14.7811 43.7994 15.6068 43.5547 16.1557 43.2894C16.6749 43.0355 17.5074 40.9679 17.727 40.3161C18.0198 39.4355 17.9008 38.882 17.3656 38.6579C17.0454 38.5206 16.4645 38.4474 15.6251 38.436C15.4604 38.436 14.9389 38.4451 14.0652 38.436H9.40624C8.07738 38.436 6.94294 38.5343 6.00062 38.436C4.47736 38.2896 3.54647 37.5646 3.21254 36.588C2.92893 35.7188 2.96324 34.7719 3.58307 32.9102C4.19832 31.0667 4.49565 30.456 5.36707 29.6212C6.0761 28.9419 6.6296 28.7406 7.44841 28.4181C8.64232 27.9607 10.129 28.0064 12.3132 27.9104C13.1687 27.8715 14.3809 27.8509 15.9522 27.8532C16.7984 27.8532 23.8201 27.8601 24.5108 27.8692L22.8114 31.2725C22.4958 31.2634 15.1837 31.2725 14.8131 31.2725C12.6792 31.2725 11.0279 31.1856 9.86139 31.2725C8.99683 31.3412 8.3953 31.6476 8.05451 31.9678C7.76175 32.2492 7.54218 32.6037 7.40038 33.0314C7.12134 33.8662 7.16708 34.8863 7.97903 35.1425C8.17573 35.2042 9.49086 35.1539 10.8906 35.1425H15.1425C16.0253 35.1425 17.2398 35.099 18.8775 35.1425C20.7347 35.1905 21.8668 35.6228 22.1802 36.716C22.45 37.6538 22.2328 39.2502 21.6335 41.0457C20.8856 43.2894 19.9616 44.6571 18.7631 45.604C17.8574 46.3153 16.5788 46.7659 14.9298 46.9512C13.1641 47.1456 10.8929 47.2439 8.11398 47.2417C6.7897 47.2417 1.16094 47.2279 0.166016 47.2028L1.59551 43.836L1.59093 43.8292Z" fill="#B91B28"/>
<path d="M1.59093 43.8292C1.71673 43.8429 6.32083 43.8223 6.46492 43.8292C7.72287 43.8886 10.8289 43.8772 13.1046 43.8292C14.7811 43.7994 15.6068 43.5547 16.1557 43.2894C16.6749 43.0355 17.5074 40.9679 17.727 40.3161C18.0198 39.4355 17.9008 38.882 17.3656 38.6579C17.0454 38.5206 16.4645 38.4474 15.6251 38.436C15.4604 38.436 14.9389 38.4451 14.0652 38.436H9.40624C8.07738 38.436 6.94294 38.5343 6.00062 38.436C4.47736 38.2896 3.54647 37.5646 3.21254 36.588C2.92893 35.7188 2.96324 34.7719 3.58307 32.9102C4.19832 31.0667 4.49565 30.456 5.36707 29.6212C6.0761 28.9419 6.6296 28.7406 7.44841 28.4181C8.64232 27.9607 10.129 28.0064 12.3132 27.9104C13.1687 27.8715 14.3809 27.8509 15.9522 27.8532C16.7984 27.8532 23.8201 27.8601 24.5108 27.8692L22.8114 31.2725C22.4958 31.2634 15.1837 31.2725 14.8131 31.2725C12.6792 31.2725 11.0279 31.1856 9.86139 31.2725C8.99683 31.3412 8.3953 31.6476 8.05451 31.9678C7.76175 32.2492 7.54218 32.6037 7.40038 33.0314C7.12134 33.8662 7.16708 34.8863 7.97903 35.1425C8.17573 35.2042 9.49086 35.1539 10.8906 35.1425H15.1425C16.0253 35.1425 17.2398 35.099 18.8775 35.1425C20.7347 35.1905 21.8668 35.6228 22.1802 36.716C22.45 37.6538 22.2328 39.2502 21.6335 41.0457C20.8856 43.2894 19.9616 44.6571 18.7631 45.604C17.8574 46.3153 16.5788 46.7659 14.9298 46.9512C13.1641 47.1456 10.8929 47.2439 8.11398 47.2417C6.7897 47.2417 1.16094 47.2279 0.166016 47.2028L1.59551 43.836L1.59093 43.8292Z" stroke="#BB1B28" stroke-width="0.821668" stroke-miterlimit="10"/>
<path d="M48.7468 47.2302L50.8716 40.8535H59.5331C60.0935 40.8558 60.5143 40.8055 60.7911 40.7026C61.0815 40.5951 61.3423 40.3732 61.571 40.0438C61.6922 39.8654 61.8272 39.5567 61.9735 39.1152C62.2228 38.3696 62.2228 37.8756 61.9735 37.6332C61.834 37.5051 61.6373 37.425 61.3812 37.393C61.2782 37.3793 61.0472 37.3747 60.6904 37.3747H52.0289L58.3209 34.1841H61.9896C62.9021 34.1841 63.522 34.2024 63.8513 34.2321C64.6793 34.3144 65.2625 34.5249 65.6033 34.8634C66.0836 35.3597 66.2323 36.0962 66.047 37.0728C65.9441 37.6217 65.7726 38.2553 65.5324 38.9757C65.0612 40.3915 64.5832 41.4322 64.1006 42.1023C63.4831 42.9509 62.7649 43.4975 61.9461 43.7468C61.5984 43.852 61.1319 43.9275 60.5418 43.9732L62.7809 47.2325H59.078L56.8754 44.0235H53.344L52.2736 47.2302H48.7422H48.7468Z" fill="#B91B28"/>
<path d="M75.8154 1.56654C75.8268 1.57112 75.8406 1.55968 75.836 1.54824C75.7697 1.33554 75.4037 0.155349 75.7445 0.102744C77.2563 -0.130549 78.464 1.07937 78.9237 1.63516C79.0998 1.84786 79.2942 2.09031 79.5481 2.1978C79.5572 2.20238 79.5664 2.20467 79.5732 2.20924L79.6441 2.23897L79.6624 2.24812C79.8706 2.33961 80.0215 2.40136 80.2068 2.48599C80.4126 2.57976 80.6162 2.67811 80.8175 2.78104C80.9753 2.86109 81.1285 2.94571 81.2749 3.03034C81.4282 3.11954 81.5791 3.2156 81.7209 3.31624C82.1326 3.60671 82.3911 3.85144 82.558 4.16249C82.725 4.47355 82.7822 4.82349 82.7913 5.31981C82.7959 5.55996 82.972 5.90761 83.1321 6.21867C83.2053 6.36505 83.3334 6.63951 83.3334 6.63951L83.3745 6.77217C83.3928 6.79733 83.4294 6.82706 83.4637 6.8568C83.5552 6.93227 83.649 7.01004 83.7199 7.15184C83.7519 7.21817 83.7725 7.2845 83.7817 7.34854C83.7817 7.35998 83.784 7.36912 83.784 7.38056C83.8343 7.43774 83.88 7.49949 83.9189 7.56353C83.9852 7.67332 84.0333 7.78997 84.0538 7.91576V7.92262C84.1064 8.22453 84.0104 8.48527 83.848 8.7117C83.7062 8.9084 83.5163 9.0685 83.3379 9.20116C83.3242 9.21259 83.3105 9.22174 83.3014 9.2286C83.2899 9.23775 83.2739 9.24919 83.2556 9.26062L83.2488 9.2652C82.9423 9.45961 82.7135 9.39786 82.494 9.33839C82.4551 9.32924 82.4185 9.3178 82.3842 9.31323L82.3773 9.32238C82.3773 9.32238 82.3659 9.3361 82.3613 9.34296C82.2721 9.4619 82.1601 9.56482 82.0343 9.65173C81.7278 9.86902 81.3367 9.59684 81.3252 9.59455C79.898 9.43902 79.7905 9.57397 79.4314 9.92162C79.3011 10.0474 79.1272 10.2693 79.1478 10.45L79.1547 10.5071C79.1753 10.6947 79.0129 10.9531 78.8208 11.0995C78.1323 11.6279 77.3913 11.4197 77.1077 11.3351C76.1562 11.0561 76.3689 9.61742 76.3506 9.47333C76.3003 9.31094 76.1516 9.19201 75.9046 9.12111C75.5867 9.02962 75.1315 9.01132 74.5392 9.07079C74.3425 9.12111 74.1412 9.21031 73.9491 9.3178C73.7432 9.43445 73.5442 9.57168 73.3704 9.70434C73.144 9.87816 71.6847 11.127 70.8865 11.3488C70.8865 11.3488 72.961 11.8794 73.9628 12.1882C80.2937 14.1369 80.0536 16.145 79.5778 16.6665C78.9145 17.3938 78.0614 17.1971 77.9631 17.0942C77.716 16.8381 77.437 16.344 77.1626 15.9003C75.7697 13.6269 71.9318 14.775 65.3973 13.7549C65.3973 13.7549 62.0008 15.4886 54.675 15.1524C48.5842 14.8734 49.1583 20.7606 42.6718 23.0135C41.8484 23.2994 40.9908 23.4709 40.1262 23.5853C36.5719 24.0541 34.8954 25.2984 32.1416 28.8023C30.0946 31.4097 30.1587 31.7185 28.7223 32.0227C28.1048 32.153 27.2608 32.0936 26.8102 31.9952C26.307 31.8854 25.9159 31.3548 26.1378 30.6915C26.657 29.1294 27.661 27.9721 28.274 27.9355C29.429 27.8669 30.0809 28.2603 32.4298 23.8574C33.1892 22.4348 33.2235 21.8424 33.2235 21.8424C34.8131 20.9733 36.8235 20.788 39.1907 16.1999C40.0324 14.5669 40.4052 13.1511 41.3293 12.3506C40.3092 11.9618 37.2604 12.0761 32.1805 12.6937C27.0527 13.0848 24.4018 12.943 22.7779 9.06393C22.5675 8.15134 23.3223 7.61843 24.1091 7.90661C25.1451 8.34346 25.0239 8.85122 26.307 10.0268C27.0046 10.6672 29.2941 11.2139 32.3292 10.9669C32.9536 10.9165 33.5711 10.8159 34.1795 10.6718C38.9117 9.5511 42.4019 8.9793 45.3341 8.8375C47.1936 8.74601 51.0292 7.41029 56.1776 4.64738C67.4214 -1.38621 75.2619 1.36298 75.8108 1.56654" fill="white"/>
<path d="M75.8154 1.56654C75.8268 1.57112 75.8406 1.55968 75.836 1.54824C75.7697 1.33554 75.4037 0.155349 75.7445 0.102744C77.2563 -0.130549 78.464 1.07937 78.9237 1.63516C79.0998 1.84786 79.2942 2.09031 79.5481 2.1978C79.5572 2.20238 79.5664 2.20467 79.5732 2.20924L79.6441 2.23897L79.6624 2.24812C79.8706 2.33961 80.0215 2.40136 80.2068 2.48599C80.4126 2.57976 80.6162 2.67811 80.8175 2.78104C80.9753 2.86109 81.1285 2.94571 81.2749 3.03034C81.4281 3.11954 81.5791 3.2156 81.7209 3.31624C82.1326 3.60671 82.3911 3.85144 82.558 4.16249C82.725 4.47355 82.7822 4.82349 82.7913 5.31981C82.7959 5.55996 82.972 5.90761 83.1321 6.21867C83.2053 6.36505 83.3334 6.63951 83.3334 6.63951L83.3745 6.77217C83.3928 6.79733 83.4294 6.82706 83.4637 6.8568C83.5552 6.93227 83.649 7.01004 83.7199 7.15184C83.7519 7.21817 83.7725 7.2845 83.7817 7.34854C83.7817 7.35998 83.784 7.36912 83.784 7.38056C83.8343 7.43774 83.88 7.49949 83.9189 7.56353C83.9852 7.67332 84.0333 7.78997 84.0538 7.91576V7.92262C84.1064 8.22453 84.0104 8.48527 83.848 8.7117C83.7062 8.9084 83.5163 9.0685 83.3379 9.20116C83.3242 9.21259 83.3105 9.22174 83.3014 9.2286C83.2899 9.23775 83.2739 9.24919 83.2556 9.26063L83.2488 9.2652C82.9423 9.45961 82.7135 9.39786 82.494 9.33839C82.4551 9.32924 82.4185 9.3178 82.3842 9.31323L82.3773 9.32238C82.3773 9.32238 82.3659 9.3361 82.3613 9.34296C82.2721 9.4619 82.1601 9.56482 82.0343 9.65173C81.7278 9.86902 81.3367 9.59684 81.3252 9.59455C79.898 9.43903 79.7905 9.57397 79.4314 9.92162C79.3011 10.0474 79.1272 10.2693 79.1478 10.45L79.1547 10.5071C79.1753 10.6947 79.0129 10.9531 78.8208 11.0995C78.1323 11.6279 77.3913 11.4197 77.1077 11.3351C76.1562 11.0561 76.3689 9.61742 76.3506 9.47333C76.3003 9.31094 76.1516 9.19201 75.9046 9.12111C75.5867 9.02962 75.1315 9.01132 74.5392 9.07079C74.3425 9.12111 74.1412 9.21031 73.9491 9.3178C73.7432 9.43445 73.5442 9.57168 73.3704 9.70434C73.144 9.87816 71.6847 11.127 70.8865 11.3488C70.8865 11.3488 72.961 11.8794 73.9628 12.1882C80.2937 14.1369 80.0535 16.145 79.5778 16.6665C78.9145 17.3938 78.0614 17.1971 77.9631 17.0942C77.716 16.8381 77.437 16.344 77.1626 15.9003C75.7697 13.6269 71.9318 14.775 65.3973 13.7549C65.3973 13.7549 62.0008 15.4886 54.675 15.1524C48.5842 14.8734 49.1583 20.7606 42.6718 23.0135C41.8484 23.2994 40.9908 23.4709 40.1262 23.5853C36.5719 24.0541 34.8954 25.2984 32.1416 28.8023C30.0946 31.4097 30.1587 31.7185 28.7223 32.0227C28.1048 32.153 27.2608 32.0936 26.8102 31.9952C26.307 31.8854 25.9159 31.3548 26.1378 30.6915C26.657 29.1294 27.661 27.9721 28.274 27.9355C29.429 27.8669 30.0809 28.2603 32.4298 23.8574C33.1892 22.4348 33.2235 21.8424 33.2235 21.8424C34.8131 20.9733 36.8235 20.788 39.1907 16.1999C40.0324 14.5669 40.4052 13.1511 41.3293 12.3506C40.3092 11.9618 37.2604 12.0761 32.1805 12.6937C27.0527 13.0848 24.4018 12.943 22.7779 9.06393C22.5675 8.15134 23.3223 7.61843 24.1091 7.90661C25.1451 8.34346 25.0239 8.85122 26.307 10.0268C27.0046 10.6672 29.2941 11.2139 32.3292 10.9669C32.9536 10.9165 33.5711 10.8159 34.1795 10.6718C38.9117 9.5511 42.4019 8.9793 45.3341 8.8375C47.1936 8.74601 51.0292 7.41029 56.1776 4.64738C67.4214 -1.38621 75.2619 1.36298 75.8108 1.56654H75.8154Z" stroke="#B70714" stroke-width="0.553544" stroke-miterlimit="22.93"/>
<path fill-rule="evenodd" clip-rule="evenodd" d="M83.465 7.6485C83.3438 7.62792 83.0876 7.56388 83.003 7.42665C82.9939 7.41292 83.2775 7.55244 83.4124 7.53872C83.4239 7.23452 83.0968 7.17277 83.035 7.00809C82.9184 6.97607 82.7926 6.90288 82.7354 6.83427C82.7263 6.82512 82.8749 6.88458 83.0099 6.91432L82.9573 6.80453C82.7789 6.37683 82.3923 5.80046 82.3832 5.32701C82.3672 4.53107 82.2574 4.20858 81.4958 3.6688C80.5168 2.97579 79.22 2.61899 78.8495 2.14783C78.2297 1.35875 77.5458 0.608553 76.0568 0.366111C75.9951 0.356963 75.9356 0.404994 75.9356 0.466747C75.9333 0.963066 76.1255 1.34731 76.3199 1.93054C76.3565 2.04033 76.2375 2.0106 76.1872 1.99916C74.9407 1.72012 74.0876 1.31072 71.3452 1.18035C70.7666 1.1529 71.375 1.85964 71.1211 2.21873C70.0324 3.75343 70.3297 6.65815 70.6522 8.44902C70.8352 9.45995 69.9112 11.3194 70.8421 10.9215C71.9285 10.4549 72.5872 9.62463 73.4243 9.11916C73.9618 8.79438 74.5908 8.65258 75.2152 8.7029C75.3272 8.71204 75.4279 8.71891 75.5033 8.72119C74.7531 7.9527 73.0675 7.31457 71.917 6.97836L71.9239 6.96921C74.5381 7.12016 75.604 8.35524 76.329 8.92246C76.4159 8.99108 76.2398 8.69146 76.2947 7.81547C76.3107 7.53643 76.3382 7.49526 76.3336 7.46782C76.3267 7.4358 76.2924 7.4175 76.1277 7.11102C75.3775 5.71126 75.9402 4.49905 76.4594 4.14454C75.8876 4.81697 75.8693 6.62613 76.4754 7.09272C76.7361 6.56438 77.5847 6.29678 77.9689 6.51177C77.9689 6.51177 76.958 6.53007 76.6126 7.44952C76.4479 7.89323 76.5806 9.26554 76.6424 9.74356C76.6744 9.98372 76.695 10.1964 76.7064 10.3634C76.7293 10.6744 76.9351 10.9443 77.2325 11.0358C77.8317 11.2211 78.6688 11.0656 78.8541 10.5395C78.8472 10.5258 78.8426 10.5189 78.8335 10.5052C77.6899 10.3039 77.7333 9.2198 77.8065 8.85614C78.0581 7.62792 79.172 7.61877 79.9268 7.94812L79.9199 7.94355C79.9313 7.94812 79.9405 7.9527 79.9519 7.95956C79.9725 7.96871 79.9908 7.97786 80.0091 7.98701C81.1229 8.49934 81.251 9.07571 81.2648 9.21065C81.3562 9.2381 81.4546 9.2724 81.5598 9.30214C82.0104 9.38676 82.1636 9.094 82.2277 8.89044C82.3466 8.83098 82.4701 8.90645 82.6142 8.93619C82.987 9.01395 83.186 8.90874 83.3781 8.61141L83.1334 8.49019C82.9824 8.64343 82.7674 8.81268 82.5433 8.71433C82.7263 8.63885 82.8452 8.57253 82.8932 8.35753L82.2048 7.84063C82.7286 8.11509 83.2523 8.26833 83.6068 8.24775C83.6594 8.03733 83.6411 7.84291 83.465 7.6485ZM76.9763 1.99459C77.0563 2.06091 77.4086 2.09751 77.5755 2.10208C77.404 1.36561 77.1341 1.22381 76.5532 0.834984C77.4909 1.0111 78.3303 1.86879 78.2548 2.7768C77.9781 2.74478 77.1295 2.34453 76.9763 1.99459ZM79.0439 6.95549C78.9318 7.08586 78.8243 7.23224 78.7214 7.36947C78.8015 7.17734 78.8907 7.00581 78.9982 6.84799C79.1651 6.58954 79.3618 6.37454 79.5791 6.21673C79.4236 6.15726 78.8243 5.90796 78.4744 5.80961C78.1222 5.71126 77.7768 5.64036 77.4635 5.61291C78.2663 5.48025 79.4487 5.94455 79.7758 6.09322C79.8856 6.03375 80.0022 5.98572 80.1212 5.9537C79.6157 5.42536 78.4378 4.7941 78.0536 4.61112C79.1994 4.78266 80.2858 5.83934 80.3567 5.91024C80.4665 5.89881 80.5763 5.9011 80.6907 5.91482C80.4185 5.12574 78.8426 4.02332 78.6894 3.89066C78.9867 4.01874 79.3435 4.24975 79.6454 4.48075C80.1875 4.89473 80.6655 5.40935 81.0315 5.98343C81.0498 5.99487 81.0658 6.00402 81.0841 6.01774C81.2053 6.04519 81.4889 6.19843 81.5575 6.26247C81.5918 6.29449 81.7336 6.70847 81.7291 6.7382C80.9034 6.00173 79.7598 6.12066 79.0462 6.95777M82.6622 7.42893C82.3123 6.80453 82.1636 6.37683 82.0355 5.6861C82.0859 5.76615 82.3832 6.80682 82.8681 7.46782C82.955 7.58446 83.0968 7.68967 83.1334 7.82919C82.8086 7.68052 82.9253 7.90009 82.6622 7.43122" fill="#B70714"/>
<path fill-rule="evenodd" clip-rule="evenodd" d="M73.3035 9.19683C67.8783 6.82959 75.4855 1.69715 73.411 1.3861C67.0389 0.430053 62.0185 1.96018 58.0023 6.14801C58.0023 6.14801 58.661 4.37087 60.1796 3.29818C58.2676 3.96833 53.684 6.39274 49.0594 8.37344C46.4131 9.51246 44.3661 9.22427 42.4059 9.38209C40.2354 9.55591 40.1073 9.86697 36.6217 10.544C35.3546 10.791 33.6552 11.0403 32.3035 11.1752C24.1474 11.978 25.3115 8.41004 23.7425 8.07611C22.8665 7.88856 22.3954 8.59758 23.1662 9.87155C25.0645 13.0118 27.6536 13.1788 34.3528 12.4469C37.1431 12.1427 40.8873 11.3033 41.9897 12.129C42.1726 12.2662 40.3841 13.6019 39.6224 16.1384C38.241 19.1529 36.9807 20.8752 34.2064 21.7512C35.6885 21.8175 37.0494 21.5064 38.7373 20.5413C38.8814 20.4589 37.9894 21.5751 36.7314 21.9662C35.5444 22.3367 33.8244 22.1308 33.8244 22.1286C33.2572 23.7799 30.9815 28.6928 28.9276 28.3703C28.0905 28.2376 27.7359 28.814 26.7959 30.1085C26.478 30.5454 26.1052 31.6707 26.4734 31.8491C27.3586 32.2791 29.9339 32.4598 31.0798 30.2046C33.3281 26.998 35.9309 24.1687 38.8448 23.8028C43.2476 23.2493 45.9968 20.5115 48.6522 17.5611C50.8159 14.7615 51.9321 14.1554 55.0198 14.3819C61.2752 14.8416 64.7357 13.7254 65.0765 13.1742C63.647 9.1305 66.8308 8.3803 66.8308 8.3803C65.0331 10.1369 65.1566 10.9236 65.7215 13.1582C65.8564 13.6934 71.842 13.316 75.1927 14.3659C77.0568 14.9514 77.2169 16.1887 78.07 17.1928C78.1615 17.298 79.0329 17.1539 79.4492 16.804C80.1536 16.207 79.6756 15.0909 78.7973 14.4368C77.3495 13.3595 70.9591 11.7242 69.3101 11.3148C69.2666 11.3033 69.2758 11.2416 69.3215 11.2393C71.4829 11.1432 71.4532 10.4022 73.3104 9.19454" fill="#B70714"/>
<path fill-rule="evenodd" clip-rule="evenodd" d="M78.7616 10.1985C79.2054 9.97661 79.29 9.4963 79.29 9.4963C79.29 9.4963 78.661 9.94687 78.3477 9.48944C77.8902 8.82158 78.4963 7.20911 80.214 8.24063C80.4061 8.35728 80.7675 8.62031 80.6737 8.68664C80.628 8.73695 80.5685 8.78498 80.4793 8.82387C80.2163 8.9428 79.9784 8.95424 79.704 9.00684C80.1317 9.17152 80.9505 9.18982 81.2798 9.02056C80.7035 8.19489 80.0608 7.65969 79.1162 7.70315C78.3477 7.73745 77.8491 8.11255 77.8399 9.01142C77.8353 9.40939 78.0503 10.0361 78.7616 10.1939" fill="#B70714"/>
<path fill-rule="evenodd" clip-rule="evenodd" d="M81.8183 5.56693C81.6147 5.6607 81.2099 5.70645 81.0658 5.31305C80.94 4.9654 80.9492 4.6269 81.1207 4.20605C81.1207 4.20605 81.2396 4.77099 81.8183 5.56693Z" fill="white"/>
</g>
<defs>
<clipPath id="clip0_835_19699">
<rect width="85.9935" height="47.3447" fill="white"/>
</clipPath>
</defs>
</svg>
