<svg width="70" height="39" viewBox="0 0 70 39" fill="none" xmlns="http://www.w3.org/2000/svg">
<g clip-path="url(#clip0_3010_6107)">
<path fill-rule="evenodd" clip-rule="evenodd" d="M17.625 38.4145L20.5455 29.6512L24.0482 27.8041L20.5101 38.4145H17.625Z" fill="#B91B28"/>
<path fill-rule="evenodd" clip-rule="evenodd" d="M22.6522 36.0576H30.5933C31.036 36.0595 31.3355 36.0316 31.4917 35.9739C31.8359 35.853 32.0851 35.5647 32.2377 35.1052C32.3958 34.6309 32.3363 34.3277 32.0572 34.1975C31.9512 34.1454 31.6536 34.1193 31.1643 34.1193H23.2995L23.9934 32.0341H31.6164C32.0851 32.0359 32.4125 31.9913 32.5985 31.9039C32.8869 31.7681 33.0971 31.5058 33.2273 31.1133C33.3798 30.6538 33.3091 30.3618 33.0152 30.2372C32.8906 30.1851 32.606 30.159 32.1651 30.159H24.6184L28.2904 27.8022H33.9248C34.9275 27.804 35.6083 27.9305 35.9636 28.1854C36.3021 28.4291 36.4807 28.7732 36.503 29.2196C36.5179 29.5768 36.4305 30.0381 36.2426 30.6036C35.9357 31.5263 35.5134 32.1755 34.9796 32.5549C34.6671 32.7726 34.2039 32.9325 33.5844 33.0367C34.3043 33.1204 34.6094 33.2785 34.8214 33.5111C35.1507 33.8682 35.1507 34.5342 34.827 35.5089C34.4085 36.7626 33.7667 37.609 32.9036 38.0424C32.4051 38.2917 31.8042 38.4163 30.7756 38.4163H21.8672L22.6522 36.0595V36.0576Z" fill="#B91B28"/>
<path fill-rule="evenodd" clip-rule="evenodd" d="M21.8691 38.4126L24.7896 29.6493L28.2905 27.8022L24.7543 38.4145L21.8691 38.4126Z" fill="#B91B28"/>
<path fill-rule="evenodd" clip-rule="evenodd" d="M35.1309 38.4145L38.0513 29.6512L41.554 27.8041L38.016 38.4145H35.1309Z" fill="#B91B28"/>
<path fill-rule="evenodd" clip-rule="evenodd" d="M51.9727 38.4145L54.8931 29.6512L58.3958 27.8041L54.8578 38.4145H51.9727Z" fill="#B91B28"/>
<path fill-rule="evenodd" clip-rule="evenodd" d="M69.939 38.4145H66.8084L65.5955 30.079L60.415 36.5189L58.8729 38.4126H55.625L64.4683 27.8003L68.3151 27.8022L69.939 38.4145Z" fill="#B91B28"/>
<path fill-rule="evenodd" clip-rule="evenodd" d="M60.6954 33.0497L67.3865 33.0237L68.3742 35.6149L59.8379 35.6447L60.6954 33.0497Z" fill="#B91B28"/>
<path fill-rule="evenodd" clip-rule="evenodd" d="M1.29365 35.6465C1.39596 35.6577 5.1405 35.641 5.25769 35.6465C6.28078 35.6949 8.8069 35.6856 10.6578 35.6465C12.0213 35.6224 12.6928 35.4233 13.1392 35.2075C13.5615 35.0011 14.2386 33.3195 14.4172 32.7893C14.6553 32.0731 14.5586 31.623 14.1233 31.4407C13.8629 31.3291 13.3904 31.2696 12.7077 31.2602C12.5738 31.2602 12.1496 31.2677 11.439 31.2602H7.64987C6.56911 31.2602 5.64646 31.3402 4.88007 31.2602C3.6412 31.1412 2.8841 30.5515 2.61252 29.7572C2.38186 29.0504 2.40976 28.2802 2.91387 26.7661C3.41425 25.2668 3.65608 24.7701 4.3648 24.0911C4.94146 23.5387 5.39162 23.375 6.05756 23.1127C7.02857 22.7406 8.23769 22.7778 10.0142 22.6997C10.7099 22.6681 11.6958 22.6514 12.9737 22.6532C13.662 22.6532 19.3727 22.6588 19.9345 22.6662L18.5524 25.4342C18.2957 25.4267 12.3487 25.4342 12.0473 25.4342C10.3118 25.4342 8.96874 25.3635 8.02005 25.4342C7.3169 25.49 6.82768 25.7392 6.55051 25.9997C6.31241 26.2285 6.13383 26.5168 6.0185 26.8647C5.79156 27.5436 5.82876 28.3733 6.48912 28.5816C6.6491 28.6318 7.7187 28.5909 8.85713 28.5816H12.3152C13.0332 28.5816 14.021 28.5463 15.3529 28.5816C16.8633 28.6207 17.7841 28.9722 18.039 29.8614C18.2585 30.6241 18.0817 31.9225 17.5944 33.3827C16.9861 35.2075 16.2346 36.3199 15.2598 37.09C14.5232 37.6686 13.4834 38.035 12.1422 38.1857C10.7061 38.3438 8.85899 38.4238 6.59887 38.4219C5.52183 38.4219 0.943942 38.4108 0.134766 38.3903L1.29738 35.6521L1.29365 35.6465Z" fill="#B91B28"/>
<path d="M1.29365 35.6465C1.39596 35.6577 5.1405 35.641 5.25769 35.6465C6.28078 35.6949 8.8069 35.6856 10.6578 35.6465C12.0213 35.6224 12.6928 35.4233 13.1392 35.2075C13.5615 35.0011 14.2386 33.3195 14.4172 32.7893C14.6553 32.0731 14.5586 31.623 14.1233 31.4407C13.8629 31.3291 13.3904 31.2696 12.7077 31.2602C12.5738 31.2602 12.1496 31.2677 11.439 31.2602H7.64987C6.56911 31.2602 5.64646 31.3402 4.88007 31.2602C3.6412 31.1412 2.8841 30.5515 2.61252 29.7572C2.38186 29.0504 2.40976 28.2802 2.91387 26.7661C3.41425 25.2668 3.65608 24.7701 4.3648 24.0911C4.94146 23.5387 5.39162 23.375 6.05756 23.1127C7.02857 22.7406 8.23769 22.7778 10.0142 22.6997C10.7099 22.6681 11.6958 22.6514 12.9737 22.6532C13.662 22.6532 19.3727 22.6588 19.9345 22.6662L18.5524 25.4342C18.2957 25.4267 12.3487 25.4342 12.0473 25.4342C10.3118 25.4342 8.96874 25.3635 8.02005 25.4342C7.3169 25.49 6.82768 25.7392 6.55051 25.9997C6.31241 26.2285 6.13383 26.5168 6.0185 26.8647C5.79156 27.5436 5.82876 28.3733 6.48912 28.5816C6.6491 28.6318 7.7187 28.5909 8.85713 28.5816H12.3152C13.0332 28.5816 14.021 28.5463 15.3529 28.5816C16.8633 28.6207 17.7841 28.9722 18.039 29.8614C18.2585 30.6241 18.0817 31.9225 17.5944 33.3827C16.9861 35.2075 16.2346 36.3199 15.2598 37.09C14.5232 37.6686 13.4834 38.035 12.1422 38.1857C10.7061 38.3438 8.85899 38.4238 6.59887 38.4219C5.52183 38.4219 0.943942 38.4108 0.134766 38.3903L1.29738 35.6521L1.29365 35.6465Z" stroke="#BB1B28" stroke-width="0.697514" stroke-miterlimit="10"/>
<path d="M39.6463 38.4126L41.3744 33.2265H48.4189C48.8746 33.2283 49.2169 33.1874 49.442 33.1037C49.6782 33.0163 49.8903 32.8358 50.0763 32.568C50.1749 32.4229 50.2846 32.1717 50.4037 31.8127C50.6064 31.2063 50.6064 30.8045 50.4037 30.6073C50.2902 30.5032 50.1302 30.4381 49.9219 30.412C49.8382 30.4008 49.6503 30.3971 49.3601 30.3971H42.3156L47.433 27.8022H50.4167C51.1589 27.8022 51.663 27.8171 51.9309 27.8412C52.6043 27.9082 53.0786 28.0793 53.3558 28.3547C53.7464 28.7583 53.8673 29.3573 53.7167 30.1516C53.633 30.598 53.4934 31.1133 53.2981 31.6993C52.9149 32.8507 52.5262 33.6971 52.1337 34.2421C51.6314 34.9322 51.0473 35.3768 50.3814 35.5796C50.0986 35.6651 49.7191 35.7265 49.2392 35.7637L51.0603 38.4145H48.0487L46.2574 35.8047H43.3852L42.5147 38.4126H39.6426H39.6463Z" fill="#B91B28"/>
<path d="M61.6607 1.2742C61.67 1.27792 61.6812 1.26862 61.6775 1.25932C61.6235 1.08632 61.3259 0.12647 61.6031 0.0836863C62.8327 -0.106052 63.8148 0.877981 64.1887 1.33C64.332 1.503 64.4901 1.70018 64.6965 1.78761C64.704 1.79133 64.7114 1.79319 64.717 1.79691L64.7747 1.82109L64.7896 1.82853C64.9588 1.90294 65.0816 1.95316 65.2323 2.02199C65.3997 2.09826 65.5652 2.17824 65.7289 2.26195C65.8573 2.32706 65.9819 2.39588 66.101 2.46471C66.2256 2.53726 66.3484 2.61538 66.4637 2.69723C66.7985 2.93347 67.0087 3.13251 67.1445 3.3855C67.2803 3.63848 67.3268 3.92309 67.3343 4.32675C67.338 4.52206 67.4812 4.80481 67.6114 5.05779C67.671 5.17685 67.7751 5.40007 67.7751 5.40007L67.8086 5.50796C67.8235 5.52842 67.8533 5.5526 67.8812 5.57678C67.9556 5.63817 68.0318 5.70142 68.0895 5.81675C68.1156 5.87069 68.1323 5.92464 68.1397 5.97672C68.1397 5.98602 68.1416 5.99346 68.1416 6.00276C68.1825 6.04927 68.2197 6.09949 68.2513 6.15158C68.3053 6.24087 68.3443 6.33573 68.3611 6.43804V6.44362C68.4039 6.68917 68.3257 6.90123 68.1937 7.08539C68.0783 7.24536 67.924 7.37557 67.7789 7.48346C67.7677 7.49276 67.7565 7.5002 67.7491 7.50578C67.7398 7.51323 67.7268 7.52253 67.7119 7.53183L67.7063 7.53555C67.4571 7.69366 67.271 7.64344 67.0925 7.59507C67.0608 7.58763 67.0311 7.57833 67.0032 7.57461L66.9976 7.58205C66.9976 7.58205 66.9883 7.59321 66.9846 7.59879C66.912 7.69552 66.8209 7.77923 66.7186 7.84992C66.4693 8.02663 66.1512 7.80527 66.1419 7.80341C64.9812 7.67692 64.8937 7.78667 64.6017 8.06942C64.4956 8.17173 64.3543 8.35216 64.371 8.49912L64.3766 8.54562C64.3933 8.69816 64.2613 8.90836 64.105 9.02741C63.5451 9.45711 62.9424 9.28783 62.7117 9.21901C61.9379 8.99206 62.1109 7.82201 62.096 7.70482C62.0551 7.57275 61.9342 7.47602 61.7333 7.41836C61.4747 7.34395 61.1045 7.32907 60.6228 7.37743C60.4628 7.41836 60.2991 7.4909 60.1428 7.57833C59.9754 7.6732 59.8136 7.78481 59.6722 7.8927C59.4881 8.03407 58.3013 9.04973 57.6521 9.23017C57.6521 9.23017 59.3392 9.66173 60.154 9.91285C65.303 11.4977 65.1076 13.131 64.7207 13.5551C64.1813 14.1466 63.4874 13.9866 63.4074 13.9029C63.2065 13.6946 62.9796 13.2928 62.7564 12.9319C61.6235 11.0829 58.5022 12.0167 53.1876 11.1871C53.1876 11.1871 50.4253 12.5971 44.4671 12.3236C39.5135 12.0967 39.9804 16.8848 34.7049 18.7171C34.0353 18.9496 33.3377 19.0891 32.6346 19.1821C29.7439 19.5634 28.3804 20.5754 26.1407 23.4252C24.4758 25.5458 24.5279 25.7969 23.3597 26.0443C22.8575 26.1503 22.1711 26.102 21.8046 26.022C21.3954 25.9327 21.0773 25.5011 21.2577 24.9617C21.68 23.6912 22.4966 22.7499 22.9951 22.7202C23.9345 22.6644 24.4647 22.9843 26.3751 19.4035C26.9927 18.2464 27.0206 17.7647 27.0206 17.7647C28.3134 17.0578 29.9485 16.9071 31.8738 13.1756C32.5583 11.8474 32.8615 10.696 33.613 10.0449C32.7834 9.72869 30.3038 9.8217 26.1723 10.3239C22.0018 10.642 19.8459 10.5267 18.5251 7.37185C18.354 6.62964 18.9679 6.19622 19.6078 6.4306C20.4504 6.7859 20.3518 7.19886 21.3954 8.15499C21.9627 8.67583 23.8248 9.12042 26.2932 8.91952C26.8011 8.87859 27.3033 8.79675 27.7981 8.67955C31.6468 7.76807 34.4854 7.30303 36.8702 7.18769C38.3825 7.11329 41.502 6.02695 45.6893 3.77985C54.8339 -1.12729 61.2106 1.10864 61.657 1.2742" fill="white"/>
<path d="M61.6607 1.2742C61.67 1.27792 61.6812 1.26862 61.6775 1.25932C61.6235 1.08632 61.3259 0.12647 61.6031 0.0836863C62.8327 -0.106052 63.8148 0.877981 64.1887 1.33C64.332 1.503 64.4901 1.70018 64.6965 1.78761C64.704 1.79133 64.7114 1.79319 64.717 1.79691L64.7747 1.82109L64.7896 1.82853C64.9588 1.90294 65.0816 1.95316 65.2323 2.02199C65.3997 2.09826 65.5652 2.17824 65.7289 2.26195C65.8573 2.32706 65.9819 2.39588 66.101 2.46471C66.2256 2.53726 66.3484 2.61538 66.4637 2.69723C66.7985 2.93347 67.0087 3.13251 67.1445 3.3855C67.2803 3.63848 67.3268 3.92309 67.3343 4.32675C67.338 4.52206 67.4812 4.80481 67.6114 5.05779C67.671 5.17685 67.7751 5.40007 67.7751 5.40007L67.8086 5.50796C67.8235 5.52842 67.8533 5.5526 67.8812 5.57678C67.9556 5.63817 68.0318 5.70142 68.0895 5.81675C68.1156 5.87069 68.1323 5.92464 68.1397 5.97672C68.1397 5.98602 68.1416 5.99346 68.1416 6.00276C68.1825 6.04927 68.2197 6.09949 68.2513 6.15158C68.3053 6.24087 68.3444 6.33573 68.3611 6.43804V6.44362C68.4039 6.68917 68.3258 6.90123 68.1937 7.08539C68.0783 7.24536 67.924 7.37557 67.7789 7.48346C67.7677 7.49276 67.7565 7.5002 67.7491 7.50578C67.7398 7.51323 67.7268 7.52253 67.7119 7.53183L67.7063 7.53555C67.457 7.69366 67.271 7.64344 67.0925 7.59507C67.0608 7.58763 67.0311 7.57833 67.0032 7.57461L66.9976 7.58205C66.9976 7.58205 66.9883 7.59321 66.9846 7.59879C66.912 7.69552 66.8209 7.77923 66.7186 7.84992C66.4693 8.02663 66.1512 7.80527 66.1419 7.80341C64.9812 7.67692 64.8937 7.78667 64.6017 8.06942C64.4956 8.17173 64.3543 8.35216 64.371 8.49912L64.3766 8.54562C64.3933 8.69816 64.2613 8.90836 64.105 9.02741C63.5451 9.45711 62.9424 9.28783 62.7117 9.21901C61.9379 8.99206 62.1109 7.82201 62.096 7.70482C62.0551 7.57275 61.9342 7.47602 61.7333 7.41836C61.4747 7.34395 61.1045 7.32907 60.6228 7.37743C60.4628 7.41836 60.2991 7.4909 60.1428 7.57833C59.9754 7.6732 59.8136 7.78481 59.6722 7.8927C59.4881 8.03407 58.3013 9.04973 57.6521 9.23017C57.6521 9.23017 59.3392 9.66173 60.154 9.91285C65.303 11.4977 65.1076 13.131 64.7207 13.5551C64.1813 14.1466 63.4874 13.9866 63.4074 13.9029C63.2065 13.6946 62.9796 13.2928 62.7564 12.9319C61.6235 11.0829 58.5022 12.0167 53.1876 11.1871C53.1876 11.1871 50.4253 12.5971 44.4671 12.3236C39.5135 12.0967 39.9804 16.8848 34.7049 18.7171C34.0353 18.9496 33.3377 19.0891 32.6346 19.1821C29.7439 19.5634 28.3804 20.5754 26.1407 23.4252C24.4758 25.5458 24.5279 25.7969 23.3597 26.0443C22.8575 26.1503 22.1711 26.102 21.8046 26.022C21.3954 25.9327 21.0773 25.5011 21.2577 24.9617C21.68 23.6912 22.4966 22.7499 22.9951 22.7202C23.9345 22.6644 24.4647 22.9843 26.3751 19.4035C26.9927 18.2464 27.0206 17.7647 27.0206 17.7647C28.3134 17.0578 29.9485 16.9071 31.8738 13.1756C32.5583 11.8474 32.8615 10.696 33.613 10.0449C32.7834 9.72869 30.3038 9.8217 26.1723 10.324C22.0018 10.642 19.8459 10.5267 18.5251 7.37185C18.354 6.62964 18.9679 6.19622 19.6078 6.4306C20.4504 6.7859 20.3518 7.19886 21.3954 8.15499C21.9627 8.67583 23.8248 9.12042 26.2932 8.91952C26.8011 8.87859 27.3033 8.79675 27.7981 8.67956C31.6468 7.76807 34.4854 7.30303 36.8702 7.18769C38.3825 7.11329 41.502 6.02695 45.6893 3.77985C54.8339 -1.12729 61.2106 1.10864 61.657 1.2742H61.6607Z" stroke="#B70714" stroke-width="0.469905" stroke-miterlimit="22.93"/>
<path fill-rule="evenodd" clip-rule="evenodd" d="M67.8828 6.2204C67.7842 6.20366 67.5758 6.15158 67.507 6.03997C67.4996 6.0288 67.7302 6.14227 67.84 6.13111C67.8493 5.88371 67.5833 5.83349 67.533 5.69955C67.4382 5.67351 67.3359 5.61399 67.2894 5.55818C67.2819 5.55074 67.4028 5.5991 67.5126 5.62329L67.4698 5.534C67.3247 5.18614 67.0103 4.71738 67.0029 4.33232C66.9899 3.68498 66.9006 3.4227 66.2811 2.9837C65.485 2.42006 64.4303 2.12988 64.1289 1.74668C63.6248 1.10492 63.0686 0.494782 61.8576 0.297604C61.8074 0.290163 61.7591 0.329227 61.7591 0.379451C61.7572 0.78311 61.9135 1.09562 62.0716 1.56996C62.1013 1.65925 62.0046 1.63507 61.9637 1.62577C60.9499 1.39883 60.256 1.06586 58.0257 0.959826C57.5551 0.937504 58.0499 1.5123 57.8434 1.80435C56.9579 3.05252 57.1998 5.41495 57.4621 6.87146C57.6109 7.69366 56.8594 9.20598 57.6165 8.88231C58.5 8.50284 59.0358 7.82759 59.7166 7.4165C60.1537 7.15235 60.6653 7.03702 61.1731 7.07794C61.2643 7.08538 61.3461 7.09096 61.4075 7.09282C60.7973 6.46781 59.4264 5.94882 58.4907 5.67537L58.4963 5.66793C60.6225 5.7907 61.4893 6.7952 62.079 7.25652C62.1497 7.31233 62.0065 7.06864 62.0511 6.35619C62.0641 6.12925 62.0864 6.09577 62.0827 6.07345C62.0771 6.04741 62.0492 6.03252 61.9153 5.78326C61.3052 4.64483 61.7628 3.65894 62.185 3.37061C61.72 3.91751 61.7051 5.3889 62.1981 5.76838C62.4101 5.33868 63.1002 5.12104 63.4128 5.2959C63.4128 5.2959 62.5906 5.31078 62.3097 6.05857C62.1757 6.41944 62.2836 7.53555 62.3339 7.92432C62.3599 8.11964 62.3766 8.29264 62.3859 8.42843C62.4045 8.68141 62.572 8.90092 62.8138 8.97532C63.3011 9.126 63.982 8.99951 64.1326 8.57166C64.1271 8.5605 64.1233 8.55492 64.1159 8.54376C63.1858 8.38007 63.2212 7.49834 63.2807 7.20258C63.4853 6.20366 64.3912 6.19622 65.0051 6.46409L64.9995 6.46037C65.0088 6.46409 65.0162 6.46781 65.0255 6.47339C65.0423 6.48083 65.0571 6.48827 65.072 6.49571C65.9779 6.91239 66.0821 7.38115 66.0933 7.4909C66.1677 7.51322 66.2477 7.54113 66.3332 7.56531C66.6997 7.63414 66.8243 7.39603 66.8764 7.23048C66.9731 7.18211 67.0736 7.2435 67.1908 7.26768C67.494 7.33093 67.6558 7.24536 67.8121 7.00354L67.613 6.90495C67.4903 7.02958 67.3154 7.16723 67.1331 7.08724C67.2819 7.02586 67.3787 6.97191 67.4177 6.79706L66.8578 6.37666C67.2838 6.59988 67.7098 6.72451 67.9981 6.70777C68.0409 6.53663 68.026 6.37852 67.8828 6.2204ZM62.6054 1.62205C62.6705 1.67599 62.957 1.70576 63.0928 1.70948C62.9533 1.1105 62.7338 0.99517 62.2613 0.67894C63.024 0.822173 63.7067 1.51974 63.6453 2.25823C63.4202 2.23219 62.7301 1.90666 62.6054 1.62205ZM64.287 5.65677C64.1959 5.7628 64.1085 5.88185 64.0248 5.99346C64.0899 5.83721 64.1624 5.69769 64.2498 5.56934C64.3856 5.35914 64.5456 5.18428 64.7223 5.05593C64.5958 5.00757 64.1085 4.80481 63.8239 4.72482C63.5374 4.64483 63.2565 4.58717 63.0017 4.56485C63.6546 4.45696 64.6163 4.83457 64.8823 4.95548C64.9716 4.90712 65.0664 4.86805 65.1632 4.84201C64.7521 4.41231 63.7941 3.8989 63.4816 3.75009C64.4135 3.8896 65.2971 4.749 65.3548 4.80667C65.4441 4.79737 65.5334 4.79923 65.6264 4.81039C65.405 4.16863 64.1233 3.27202 63.9987 3.16413C64.2405 3.2683 64.5307 3.45618 64.7763 3.64406C65.2171 3.98075 65.6059 4.39929 65.9035 4.86619C65.9184 4.8755 65.9314 4.88294 65.9463 4.8941C66.0449 4.91642 66.2756 5.04105 66.3314 5.09314C66.3593 5.11918 66.4746 5.45587 66.4709 5.48005C65.7994 4.88108 64.8693 4.97781 64.2889 5.65863M67.2298 6.04183C66.9452 5.534 66.8243 5.18614 66.7201 4.62437C66.7611 4.68948 67.0029 5.53586 67.3973 6.07345C67.4679 6.16832 67.5833 6.25389 67.613 6.36736C67.3489 6.24645 67.4438 6.42502 67.2298 6.04369" fill="#B70714"/>
<path fill-rule="evenodd" clip-rule="evenodd" d="M59.6185 7.47976C55.2062 5.55448 61.3931 1.38025 59.7059 1.12726C54.5235 0.34971 50.4404 1.59417 47.1739 5.00015C47.1739 5.00015 47.7097 3.55479 48.9448 2.68237C47.3897 3.2274 43.6619 5.19919 39.9007 6.8101C37.7484 7.73646 36.0836 7.50208 34.4894 7.63044C32.7241 7.77181 32.6199 8.02479 29.785 8.5754C28.7545 8.7763 27.3724 8.97906 26.273 9.08881C19.6396 9.74173 20.5865 6.83986 19.3104 6.56827C18.5979 6.41574 18.2147 6.99239 18.8416 8.02851C20.3856 10.5825 22.4913 10.7183 27.9397 10.1231C30.2091 9.87567 33.2542 9.19298 34.1509 9.86451C34.2997 9.97612 32.845 11.0625 32.2256 13.1254C31.102 15.5771 30.0771 16.9778 27.8207 17.6903C29.0261 17.7442 30.1329 17.4912 31.5057 16.7062C31.6229 16.6393 30.8974 17.547 29.8743 17.8651C28.9089 18.1665 27.51 17.9991 27.51 17.9972C27.0487 19.3402 25.1978 23.3359 23.5274 23.0736C22.8466 22.9657 22.5582 23.4345 21.7937 24.4873C21.5351 24.8426 21.2319 25.7578 21.5314 25.9029C22.2513 26.2526 24.3459 26.3996 25.2778 24.5655C27.1064 21.9575 29.2232 19.6565 31.5931 19.3588C35.1739 18.9087 37.4099 16.682 39.5695 14.2824C41.3293 12.0056 42.237 11.5126 44.7483 11.6968C49.8358 12.0707 52.6503 11.1629 52.9275 10.7146C51.7649 7.42582 54.3542 6.81568 54.3542 6.81568C52.8921 8.24429 52.9926 8.88419 53.452 10.7016C53.5618 11.1369 58.4299 10.8299 61.155 11.6838C62.6711 12.16 62.8013 13.1663 63.4951 13.9829C63.5695 14.0685 64.2782 13.9513 64.6168 13.6667C65.1897 13.1812 64.801 12.2734 64.0867 11.7414C62.9092 10.8653 57.7118 9.53525 56.3706 9.20228C56.3353 9.19298 56.3427 9.14276 56.3799 9.1409C58.1378 9.06277 58.1136 8.46007 59.6241 7.4779" fill="#B70714"/>
<path fill-rule="evenodd" clip-rule="evenodd" d="M64.0563 8.29452C64.4172 8.11408 64.4861 7.72344 64.4861 7.72344C64.4861 7.72344 63.9745 8.0899 63.7197 7.71786C63.3476 7.17469 63.8406 5.86327 65.2376 6.70221C65.3938 6.79707 65.6877 7.01099 65.6115 7.06494C65.5743 7.10586 65.5259 7.14493 65.4533 7.17655C65.2394 7.27328 65.046 7.28258 64.8227 7.32536C65.1706 7.4593 65.8365 7.47418 66.1044 7.33653C65.6356 6.665 65.1129 6.22972 64.3447 6.26506C63.7197 6.29297 63.3141 6.59804 63.3067 7.32909C63.303 7.65276 63.4778 8.16244 64.0563 8.2908" fill="#B70714"/>
<path fill-rule="evenodd" clip-rule="evenodd" d="M66.5427 4.5277C66.3772 4.60397 66.0479 4.64117 65.9307 4.32122C65.8284 4.03848 65.8359 3.76317 65.9754 3.4209C65.9754 3.4209 66.0721 3.88036 66.5427 4.5277Z" fill="white"/>
</g>
<defs>
<clipPath id="clip0_3010_6107">
<rect width="69.9389" height="38.5056" fill="white"/>
</clipPath>
</defs>
</svg>
