<svg width="140" height="118" viewBox="0 0 140 118" fill="none" xmlns="http://www.w3.org/2000/svg">
<path d="M121.562 97.8773V90.9971H123.039V96.6114H127.118V97.8773H121.562Z" fill="black"/>
<path d="M118.496 97.8773H116.843L116.046 96.3184H112.143L111.346 97.8773H109.693L113.245 90.9971H114.933L118.496 97.8773ZM114.089 92.4622L112.706 95.2049H115.472L114.089 92.4622Z" fill="black"/>
<path d="M106.663 97.8773H105.175L101.248 93.0248V97.8773H99.7832V90.9971H101.272L105.198 95.8613V90.9971H106.663V97.8773Z" fill="black"/>
<path d="M88.5879 95.4276V93.4468C88.5879 92.5481 88.7676 91.9152 89.1271 91.548C89.4943 91.1807 90.1937 90.9971 91.2251 90.9971H93.2177C94.2569 90.9971 94.9563 91.1807 95.3157 91.548C95.683 91.9152 95.8666 92.5481 95.8666 93.4468V95.4276C95.8666 96.3262 95.683 96.9592 95.3157 97.3264C94.9563 97.6937 94.2569 97.8773 93.2177 97.8773H91.2251C90.1937 97.8773 89.4943 97.6937 89.1271 97.3264C88.7676 96.9592 88.5879 96.3262 88.5879 95.4276ZM94.4015 95.4628V93.4233C94.4015 92.9779 94.3156 92.6732 94.1436 92.5091C93.9717 92.345 93.6631 92.2629 93.2177 92.2629H91.2251C90.7797 92.2629 90.4711 92.345 90.2992 92.5091C90.1351 92.6732 90.053 92.9779 90.053 93.4233V95.4628C90.053 95.9004 90.1351 96.2012 90.2992 96.3653C90.4711 96.5294 90.7797 96.6114 91.2251 96.6114H93.2177C93.6631 96.6114 93.9717 96.5333 94.1436 96.377C94.3156 96.2129 94.4015 95.9082 94.4015 95.4628Z" fill="black"/>
<path d="M84.6585 97.8773H83.1934V90.9971H84.6585V97.8773Z" fill="black"/>
<path d="M79.052 90.9971V92.2629H75.4302C74.9692 92.2629 74.641 92.3215 74.4456 92.4388C74.2503 92.5481 74.1526 92.7474 74.1526 93.0365C74.1526 93.3178 74.2503 93.5171 74.4456 93.6343C74.6488 93.7437 74.977 93.7984 75.4302 93.7984H76.8133C77.8369 93.7984 78.5519 93.9625 78.9582 94.2907C79.3646 94.6189 79.5677 95.1307 79.5677 95.8261C79.5677 96.5216 79.3646 97.0373 78.9582 97.3733C78.5519 97.7093 77.8369 97.8773 76.8133 97.8773H72.6992V96.6114H76.8133C77.2743 96.6114 77.6025 96.5567 77.7979 96.4473C78.001 96.3301 78.1026 96.127 78.1026 95.8378C78.1026 95.5487 78.001 95.3495 77.7979 95.2401C77.6025 95.1307 77.2743 95.076 76.8133 95.076H75.4302C74.4144 95.076 73.7033 94.9119 73.297 94.5837C72.8985 94.2555 72.6992 93.7437 72.6992 93.0482C72.6992 92.3528 72.8985 91.8371 73.297 91.5011C73.7033 91.1651 74.4144 90.9971 75.4302 90.9971H79.052Z" fill="black"/>
<path d="M68.9368 90.9971V92.2629H65.315C64.854 92.2629 64.5258 92.3215 64.3304 92.4388C64.1351 92.5481 64.0374 92.7474 64.0374 93.0365C64.0374 93.3178 64.1351 93.5171 64.3304 93.6343C64.5336 93.7437 64.8618 93.7984 65.315 93.7984H66.6981C67.7217 93.7984 68.4367 93.9625 68.843 94.2907C69.2493 94.6189 69.4525 95.1307 69.4525 95.8261C69.4525 96.5216 69.2493 97.0373 68.843 97.3733C68.4367 97.7093 67.7217 97.8773 66.6981 97.8773H62.584V96.6114H66.6981C67.1591 96.6114 67.4873 96.5567 67.6826 96.4473C67.8858 96.3301 67.9874 96.127 67.9874 95.8378C67.9874 95.5487 67.8858 95.3495 67.6826 95.2401C67.4873 95.1307 67.1591 95.076 66.6981 95.076H65.315C64.2992 95.076 63.5881 94.9119 63.1818 94.5837C62.7832 94.2555 62.584 93.7437 62.584 93.0482C62.584 92.3528 62.7832 91.8371 63.1818 91.5011C63.5881 91.1651 64.2992 90.9971 65.315 90.9971H68.9368Z" fill="black"/>
<path d="M59.1771 96.6114V97.8773H54.9458C53.9144 97.8773 53.215 97.6937 52.8478 97.3264C52.4883 96.9592 52.3086 96.3262 52.3086 95.4276V93.4468C52.3086 92.5481 52.4883 91.9152 52.8478 91.548C53.215 91.1807 53.9144 90.9971 54.9458 90.9971H59.1771V92.2629H54.9458C54.5004 92.2629 54.1918 92.345 54.0199 92.5091C53.8558 92.6732 53.7737 92.9779 53.7737 93.4233V93.7867H58.6614V95.0643H53.7737V95.4628C53.7737 95.9004 53.8558 96.2012 54.0199 96.3653C54.1918 96.5294 54.5004 96.6114 54.9458 96.6114H59.1771Z" fill="black"/>
<path d="M44.346 97.8773H42.8809V90.9971H49.1516V92.2629H44.346V93.7867H48.6359V95.0643H44.346V97.8773Z" fill="black"/>
<path d="M31.8027 95.4276V93.4468C31.8027 92.5481 31.9825 91.9152 32.3419 91.548C32.7092 91.1807 33.4085 90.9971 34.44 90.9971H36.4325C37.4718 90.9971 38.1711 91.1807 38.5306 91.548C38.8978 91.9152 39.0815 92.5481 39.0815 93.4468V95.4276C39.0815 96.3262 38.8978 96.9592 38.5306 97.3264C38.1711 97.6937 37.4718 97.8773 36.4325 97.8773H34.44C33.4085 97.8773 32.7092 97.6937 32.3419 97.3264C31.9825 96.9592 31.8027 96.3262 31.8027 95.4276ZM37.6164 95.4628V93.4233C37.6164 92.9779 37.5304 92.6732 37.3585 92.5091C37.1866 92.345 36.8779 92.2629 36.4325 92.2629H34.44C33.9946 92.2629 33.6859 92.345 33.514 92.5091C33.3499 92.6732 33.2679 92.9779 33.2679 93.4233V95.4628C33.2679 95.9004 33.3499 96.2012 33.514 96.3653C33.6859 96.5294 33.9946 96.6114 34.44 96.6114H36.4325C36.8779 96.6114 37.1866 96.5333 37.3585 96.377C37.5304 96.2129 37.6164 95.9082 37.6164 95.4628Z" fill="black"/>
<path d="M28.2591 97.8773H26.2313L24.2036 95.7324H23.0901V97.8773H21.625V90.9971H25.6687C26.6924 90.9971 27.3878 91.1729 27.7551 91.5245C28.1223 91.8683 28.306 92.4427 28.306 93.2475V93.4936C28.306 94.2125 28.1497 94.7478 27.8371 95.0994C27.5324 95.451 26.9737 95.6581 26.161 95.7206L28.2591 97.8773ZM25.6687 92.2629H23.0901V94.4782H25.6687C26.122 94.4782 26.4306 94.4157 26.5947 94.2907C26.7588 94.1656 26.8408 93.9078 26.8408 93.5171V93.2241C26.8408 92.8412 26.7588 92.5872 26.5947 92.4622C26.4306 92.3294 26.122 92.2629 25.6687 92.2629Z" fill="black"/>
<path d="M13.0042 97.8773H11.5391V90.9971H15.4773C16.501 90.9971 17.1964 91.1768 17.5637 91.5362C17.9309 91.8957 18.1145 92.5013 18.1145 93.353V93.5874C18.1145 94.447 17.9309 95.0564 17.5637 95.4159C17.1964 95.7675 16.501 95.9433 15.4773 95.9433H13.0042V97.8773ZM15.4773 92.2629H13.0042V94.6775H15.4773C15.9383 94.6775 16.247 94.611 16.4033 94.4782C16.5674 94.3454 16.6494 94.0602 16.6494 93.6226V93.3178C16.6494 92.8802 16.5674 92.595 16.4033 92.4622C16.247 92.3294 15.9383 92.2629 15.4773 92.2629Z" fill="black"/>
<path d="M138.172 115.509V117.75H130.68C128.853 117.75 127.615 117.425 126.964 116.775C126.328 116.125 126.01 115.004 126.01 113.413V109.905C126.01 108.314 126.328 107.193 126.964 106.543C127.615 105.893 128.853 105.567 130.68 105.567H138.172V107.809H130.68C129.891 107.809 129.344 107.954 129.04 108.245C128.749 108.535 128.604 109.075 128.604 109.864V110.507H137.259V112.769H128.604V113.475C128.604 114.25 128.749 114.783 129.04 115.073C129.344 115.364 129.891 115.509 130.68 115.509H138.172Z" fill="black"/>
<path d="M111.72 107.809V105.567H123.156V107.85L114.979 115.509H123.343V117.75H111.367V115.467L119.503 107.809H111.72Z" fill="black"/>
<path d="M108.824 115.509V117.75H101.332C99.5055 117.75 98.2671 117.425 97.6168 116.775C96.9803 116.125 96.6621 115.004 96.6621 113.413V109.905C96.6621 108.314 96.9803 107.193 97.6168 106.543C98.2671 105.893 99.5055 105.567 101.332 105.567H108.824V107.809H101.332C100.543 107.809 99.9967 107.954 99.6923 108.245C99.4017 108.535 99.2565 109.075 99.2565 109.864V110.507H107.911V112.769H99.2565V113.475C99.2565 114.25 99.4017 114.783 99.6923 115.073C99.9967 115.364 100.543 115.509 101.332 115.509H108.824Z" fill="black"/>
<path d="M93.7014 115.509V117.75H86.2089C84.3825 117.75 83.1441 117.425 82.4938 116.775C81.8573 116.125 81.5391 115.004 81.5391 113.413V109.905C81.5391 108.314 81.8573 107.193 82.4938 106.543C83.1441 105.893 84.3825 105.567 86.2089 105.567H93.7014V107.809H86.2089C85.4202 107.809 84.8737 107.954 84.5693 108.245C84.2787 108.535 84.1334 109.075 84.1334 109.864V110.507H92.7881V112.769H84.1334V113.475C84.1334 114.25 84.2787 114.783 84.5693 115.073C84.8737 115.364 85.4202 115.509 86.2089 115.509H93.7014Z" fill="black"/>
<path d="M78.5636 117.75H74.973L71.3825 113.952H69.4108V117.75H66.8164V105.567H73.9768C75.7894 105.567 77.0208 105.879 77.6712 106.501C78.3215 107.11 78.6466 108.127 78.6466 109.552V109.988C78.6466 111.261 78.3699 112.209 77.8164 112.832C77.2768 113.454 76.2875 113.821 74.8485 113.932L78.5636 117.75ZM73.9768 107.809H69.4108V111.732H73.9768C74.7793 111.732 75.3259 111.621 75.6164 111.399C75.907 111.178 76.0523 110.721 76.0523 110.03V109.511C76.0523 108.833 75.907 108.383 75.6164 108.162C75.3259 107.927 74.7793 107.809 73.9768 107.809Z" fill="black"/>
<path d="M55.6412 117.75H53.0469V105.567H64.1507V107.809H55.6412V110.507H63.2375V112.769H55.6412V117.75Z" fill="black"/>
<path d="M49.2037 117.75H46.6094V105.567H49.2037V117.75Z" fill="black"/>
<path d="M32.1523 107.809V105.567H44.3354V107.809H39.541V117.75H36.9467V107.809H32.1523Z" fill="black"/>
<path d="M29.9877 117.75H27.3519L20.399 109.158V117.75H17.8047V105.567H20.4405L27.3934 114.181V105.567H29.9877V117.75Z" fill="black"/>
<path d="M15.6943 117.75H12.7678L11.3565 114.99H4.44517L3.03385 117.75H0.107422L6.39612 105.567H9.38481L15.6943 117.75ZM7.89046 108.162L5.4414 113.018H10.3395L7.89046 108.162Z" fill="black"/>
<g clip-path="url(#clip0_3010_10338)">
<path fill-rule="evenodd" clip-rule="evenodd" d="M35.1973 76.7083L41.0291 59.209L48.0236 55.5205L40.9585 76.7083H35.1973Z" fill="#B91B28"/>
<path fill-rule="evenodd" clip-rule="evenodd" d="M45.2336 72.0017H61.0909C61.975 72.0055 62.573 71.9497 62.8851 71.8346C63.5723 71.5931 64.07 71.0174 64.3746 70.0999C64.6903 69.1527 64.5715 68.5472 64.0143 68.2872C63.8026 68.1832 63.2082 68.1312 62.2313 68.1312H46.5262L47.9117 63.9672H63.1339C64.07 63.9709 64.7238 63.8817 65.0952 63.7072C65.671 63.436 66.0907 62.9123 66.3507 62.1285C66.6553 61.211 66.5142 60.6278 65.9273 60.3789C65.6784 60.2749 65.1101 60.2229 64.2297 60.2229H49.1598L56.4923 55.5166H67.7437C69.7458 55.5203 71.1053 55.7729 71.8148 56.2818C72.4909 56.7684 72.8475 57.4556 72.892 58.3471C72.9218 59.0603 72.7472 59.9815 72.372 61.1107C71.7591 62.9531 70.9159 64.2495 69.8498 65.0073C69.2258 65.4419 68.3009 65.7613 67.0639 65.9693C68.5014 66.1365 69.1106 66.4522 69.5341 66.9165C70.1916 67.6297 70.1916 68.9595 69.5452 70.906C68.7095 73.4096 67.428 75.0997 65.7044 75.9652C64.7089 76.4629 63.5091 76.7118 61.455 76.7118H43.666L45.2336 72.0055V72.0017Z" fill="#B91B28"/>
<path fill-rule="evenodd" clip-rule="evenodd" d="M43.668 76.7044L49.4998 59.2051L56.4906 55.5166L49.4292 76.7081L43.668 76.7044Z" fill="#B91B28"/>
<path fill-rule="evenodd" clip-rule="evenodd" d="M70.1523 76.7083L75.9842 59.209L82.9787 55.5205L75.9136 76.7083H70.1523Z" fill="#B91B28"/>
<path fill-rule="evenodd" clip-rule="evenodd" d="M103.783 76.7083L109.615 59.209L116.61 55.5205L109.544 76.7083H103.783Z" fill="#B91B28"/>
<path fill-rule="evenodd" clip-rule="evenodd" d="M139.66 76.7089H133.408L130.986 60.064L120.641 72.9237L117.562 76.7051H111.076L128.735 55.5137L136.417 55.5174L139.66 76.7089Z" fill="#B91B28"/>
<path fill-rule="evenodd" clip-rule="evenodd" d="M121.201 65.9954L134.562 65.9434L136.534 71.1177L119.488 71.1771L121.201 65.9954Z" fill="#B91B28"/>
<path fill-rule="evenodd" clip-rule="evenodd" d="M2.58369 71.1827C2.78799 71.205 10.2654 71.1716 10.4994 71.1827C12.5424 71.2793 17.5867 71.2607 21.2827 71.1827C24.0055 71.1344 25.3464 70.737 26.2379 70.3061C27.0811 69.8938 28.4332 66.5358 28.7898 65.4772C29.2653 64.0471 29.0721 63.1481 28.2029 62.7841C27.6829 62.5612 26.7394 62.4424 25.3761 62.4238C25.1087 62.4238 24.2618 62.4387 22.8428 62.4238H15.2763C13.1181 62.4238 11.2757 62.5835 9.74533 62.4238C7.27144 62.1861 5.75963 61.0086 5.2173 59.4225C4.7567 58.0109 4.81242 56.4731 5.81906 53.4495C6.81827 50.4555 7.30116 49.4638 8.7164 48.1079C9.86791 47.0047 10.7668 46.6779 12.0966 46.1541C14.0356 45.4112 16.4501 45.4855 19.9975 45.3295C21.3867 45.2663 23.3554 45.2329 25.9073 45.2366C27.2817 45.2366 38.6853 45.2478 39.8071 45.2626L37.0472 50.7898C36.5346 50.775 24.6592 50.7898 24.0575 50.7898C20.5918 50.7898 17.9099 50.6487 16.0155 50.7898C14.6114 50.9013 13.6345 51.399 13.081 51.9191C12.6055 52.376 12.2489 52.9517 12.0186 53.6463C11.5655 55.0021 11.6397 56.6588 12.9584 57.0749C13.2779 57.1751 15.4137 57.0934 17.687 57.0749H24.5924C26.0262 57.0749 27.9986 57.0043 30.6582 57.0749C33.6744 57.1529 35.5131 57.8549 36.022 59.6305C36.4603 61.1534 36.1074 63.7462 35.1342 66.6621C33.9196 70.3061 32.4189 72.5274 30.4725 74.0652C29.0015 75.2204 26.9251 75.9522 24.2469 76.253C21.3793 76.5688 17.6907 76.7285 13.1776 76.7248C11.0268 76.7248 1.88536 76.7025 0.269531 76.6616L2.59112 71.1938L2.58369 71.1827Z" fill="#B91B28"/>
<path d="M2.58369 71.1827C2.78799 71.205 10.2654 71.1716 10.4994 71.1827C12.5424 71.2793 17.5867 71.2607 21.2827 71.1827C24.0055 71.1344 25.3464 70.737 26.2379 70.3061C27.0811 69.8938 28.4332 66.5358 28.7898 65.4772C29.2653 64.0471 29.0721 63.1481 28.2029 62.7841C27.6829 62.5612 26.7394 62.4424 25.3761 62.4238C25.1087 62.4238 24.2618 62.4387 22.8428 62.4238H15.2763C13.1181 62.4238 11.2757 62.5835 9.74533 62.4238C7.27144 62.1861 5.75963 61.0086 5.2173 59.4225C4.7567 58.0109 4.81242 56.4731 5.81906 53.4495C6.81827 50.4555 7.30116 49.4638 8.7164 48.1079C9.86791 47.0047 10.7668 46.6779 12.0966 46.1541C14.0356 45.4112 16.4501 45.4855 19.9975 45.3295C21.3867 45.2663 23.3554 45.2329 25.9073 45.2366C27.2817 45.2366 38.6853 45.2478 39.8071 45.2626L37.0472 50.7898C36.5346 50.775 24.6592 50.7898 24.0575 50.7898C20.5918 50.7898 17.9099 50.6487 16.0155 50.7898C14.6114 50.9013 13.6345 51.399 13.081 51.9191C12.6055 52.376 12.2489 52.9517 12.0186 53.6463C11.5655 55.0021 11.6397 56.6588 12.9584 57.0749C13.2779 57.1751 15.4137 57.0934 17.687 57.0749H24.5924C26.0262 57.0749 27.9986 57.0043 30.6582 57.0749C33.6744 57.1529 35.5131 57.8549 36.022 59.6305C36.4603 61.1534 36.1074 63.7462 35.1342 66.6621C33.9196 70.3061 32.4189 72.5274 30.4725 74.0652C29.0015 75.2204 26.9251 75.9522 24.2469 76.253C21.3793 76.5688 17.6907 76.7285 13.1776 76.7248C11.0268 76.7248 1.88536 76.7025 0.269531 76.6616L2.59112 71.1938L2.58369 71.1827Z" stroke="#BB1B28" stroke-width="1.33444" stroke-miterlimit="10"/>
<path d="M79.1695 76.7044L82.6203 66.3482H96.6873C97.5974 66.3519 98.2809 66.2702 98.7303 66.103C99.2021 65.9285 99.6255 65.5682 99.997 65.0333C100.194 64.7435 100.413 64.2421 100.651 63.5252C101.056 62.3142 101.056 61.5119 100.651 61.1181C100.424 60.9101 100.105 60.7801 99.6887 60.7281C99.5215 60.7058 99.1464 60.6984 98.5669 60.6984H84.4999L94.7186 55.5166H100.677C102.159 55.5166 103.165 55.5463 103.7 55.5946C105.045 55.7283 105.992 56.0701 106.546 56.6198C107.326 57.4259 107.567 58.622 107.266 60.2081C107.099 61.0996 106.821 62.1285 106.431 63.2986C105.665 65.5979 104.889 67.288 104.105 68.3763C103.102 69.7544 101.936 70.6422 100.606 71.0471C100.042 71.218 99.2838 71.3405 98.3254 71.4148L101.962 76.7081H95.9481L92.371 71.4966H86.6358L84.8974 76.7044H79.1621H79.1695Z" fill="#B91B28"/>
<path d="M123.13 2.54631C123.149 2.55374 123.171 2.53517 123.164 2.5166C123.056 2.17114 122.461 0.254441 123.015 0.169007C125.47 -0.209877 127.432 1.75512 128.178 2.65775C128.464 3.0032 128.78 3.39694 129.192 3.57153C129.207 3.57896 129.222 3.58267 129.233 3.5901L129.348 3.63839L129.378 3.65325C129.716 3.80183 129.961 3.90212 130.262 4.03956C130.596 4.19186 130.927 4.35158 131.254 4.51874C131.51 4.64874 131.759 4.78618 131.997 4.92362C132.246 5.06849 132.491 5.2245 132.721 5.38794C133.39 5.85969 133.809 6.25714 134.081 6.76232C134.352 7.2675 134.445 7.83582 134.459 8.64188C134.467 9.03191 134.753 9.59652 135.013 10.1017C135.132 10.3394 135.34 10.7852 135.34 10.7852L135.407 11.0006C135.436 11.0415 135.496 11.0898 135.552 11.1381C135.7 11.2606 135.852 11.3869 135.968 11.6172C136.02 11.7249 136.053 11.8327 136.068 11.9367C136.068 11.9552 136.072 11.9701 136.072 11.9887C136.153 12.0815 136.228 12.1818 136.291 12.2858C136.398 12.4641 136.476 12.6536 136.51 12.8579V12.869C136.595 13.3593 136.439 13.7828 136.176 14.1505C135.945 14.47 135.637 14.73 135.347 14.9455C135.325 14.964 135.303 14.9789 135.288 14.99C135.269 15.0049 135.243 15.0235 135.214 15.042L135.202 15.0495C134.705 15.3652 134.333 15.2649 133.977 15.1683C133.913 15.1535 133.854 15.1349 133.798 15.1275L133.787 15.1423C133.787 15.1423 133.769 15.1646 133.761 15.1758C133.616 15.3689 133.434 15.5361 133.23 15.6772C132.732 16.0301 132.097 15.5881 132.078 15.5844C129.761 15.3318 129.586 15.5509 129.003 16.1155C128.791 16.3198 128.509 16.6801 128.542 16.9736L128.553 17.0665C128.587 17.3711 128.323 17.7908 128.011 18.0285C126.893 18.8866 125.689 18.5486 125.229 18.4111C123.684 17.958 124.029 15.6215 123.999 15.3875C123.918 15.1238 123.676 14.9306 123.275 14.8154C122.759 14.6669 122.019 14.6371 121.057 14.7337C120.738 14.8154 120.411 14.9603 120.099 15.1349C119.765 15.3243 119.442 15.5472 119.159 15.7627C118.792 16.045 116.422 18.0731 115.125 18.4334C115.125 18.4334 118.494 19.2952 120.121 19.7966C130.403 22.9614 130.013 26.2228 129.241 27.0697C128.163 28.2509 126.778 27.9315 126.618 27.7643C126.217 27.3483 125.764 26.546 125.318 25.8253C123.056 22.1331 116.823 23.9978 106.21 22.3411C106.21 22.3411 100.694 25.1567 88.7966 24.6107C78.9047 24.1575 79.8371 33.7188 69.3027 37.3776C67.9654 37.8419 66.5725 38.1205 65.1684 38.3062C59.396 39.0677 56.6732 41.0884 52.2009 46.7791C48.8764 51.0137 48.9804 51.5151 46.6477 52.0092C45.6447 52.2209 44.2741 52.1243 43.5423 51.9646C42.7251 51.7863 42.0899 50.9245 42.4502 49.8473C43.2934 47.3103 44.9241 45.4307 45.9196 45.3713C47.7955 45.2598 48.8541 45.8987 52.6689 38.7482C53.9022 36.4378 53.9579 35.4757 53.9579 35.4757C56.5395 34.0642 59.8046 33.7633 63.6491 26.312C65.0161 23.6598 65.6215 21.3605 67.1222 20.0604C65.4655 19.4289 60.514 19.6146 52.264 20.6176C43.936 21.2527 39.6309 21.0224 36.9936 14.7226C36.6518 13.2405 37.8776 12.375 39.1554 12.843C40.8381 13.5525 40.6412 14.3771 42.7251 16.2864C43.858 17.3265 47.5763 18.2143 52.5055 17.8131C53.5196 17.7314 54.5225 17.5679 55.5106 17.3339C63.1959 15.5138 68.8643 14.5851 73.6264 14.3548C76.6463 14.2063 82.8756 12.037 91.237 7.5498C109.498 -2.24916 122.231 2.21572 123.123 2.54631" fill="white"/>
<path d="M123.13 2.54631C123.149 2.55374 123.171 2.53517 123.164 2.5166C123.056 2.17114 122.461 0.254441 123.015 0.169007C125.47 -0.209877 127.432 1.75512 128.178 2.65775C128.464 3.0032 128.78 3.39694 129.192 3.57153C129.207 3.57896 129.222 3.58267 129.233 3.5901L129.348 3.63839L129.378 3.65325C129.716 3.80183 129.961 3.90212 130.262 4.03956C130.596 4.19186 130.927 4.35158 131.254 4.51874C131.51 4.64874 131.759 4.78618 131.997 4.92362C132.246 5.06849 132.491 5.2245 132.721 5.38794C133.39 5.85969 133.809 6.25714 134.081 6.76232C134.352 7.2675 134.445 7.83582 134.459 8.64188C134.467 9.0319 134.753 9.59652 135.013 10.1017C135.132 10.3394 135.34 10.7852 135.34 10.7852L135.407 11.0006C135.436 11.0415 135.496 11.0898 135.552 11.1381C135.7 11.2606 135.852 11.3869 135.968 11.6172C136.02 11.7249 136.053 11.8327 136.068 11.9367C136.068 11.9553 136.072 11.9701 136.072 11.9887C136.153 12.0815 136.228 12.1818 136.291 12.2858C136.398 12.4641 136.476 12.6536 136.51 12.8579V12.869C136.595 13.3593 136.439 13.7828 136.176 14.1505C135.945 14.47 135.637 14.73 135.347 14.9455C135.325 14.964 135.303 14.9789 135.288 14.99C135.269 15.0049 135.243 15.0235 135.214 15.042L135.202 15.0495C134.705 15.3652 134.333 15.2649 133.977 15.1683C133.913 15.1535 133.854 15.1349 133.798 15.1275L133.787 15.1423C133.787 15.1423 133.769 15.1646 133.761 15.1758C133.616 15.3689 133.434 15.5361 133.23 15.6772C132.732 16.0301 132.097 15.5881 132.078 15.5844C129.761 15.3318 129.586 15.5509 129.003 16.1155C128.791 16.3198 128.509 16.6801 128.542 16.9736L128.553 17.0665C128.587 17.3711 128.323 17.7908 128.011 18.0285C126.893 18.8866 125.689 18.5486 125.229 18.4111C123.684 17.9579 124.029 15.6215 123.999 15.3875C123.918 15.1238 123.676 14.9306 123.275 14.8154C122.759 14.6669 122.019 14.6371 121.057 14.7337C120.738 14.8154 120.411 14.9603 120.099 15.1349C119.765 15.3243 119.442 15.5472 119.159 15.7627C118.792 16.045 116.422 18.0731 115.125 18.4334C115.125 18.4334 118.494 19.2952 120.121 19.7966C130.403 22.9614 130.013 26.2228 129.241 27.0697C128.163 28.2509 126.778 27.9315 126.618 27.7643C126.217 27.3483 125.764 26.546 125.318 25.8253C123.056 22.1331 116.823 23.9978 106.21 22.3411C106.21 22.3411 100.694 25.1567 88.7966 24.6107C78.9047 24.1575 79.8371 33.7188 69.3027 37.3776C67.9654 37.8419 66.5725 38.1205 65.1684 38.3062C59.396 39.0677 56.6732 41.0884 52.2009 46.7791C48.8764 51.0137 48.9804 51.5151 46.6477 52.0092C45.6447 52.2209 44.2741 52.1243 43.5423 51.9646C42.7251 51.7863 42.0899 50.9245 42.4502 49.8473C43.2934 47.3103 44.9241 45.4307 45.9196 45.3713C47.7955 45.2598 48.8541 45.8987 52.6689 38.7482C53.9022 36.4378 53.9579 35.4757 53.9579 35.4757C56.5395 34.0642 59.8046 33.7633 63.6491 26.312C65.0161 23.6598 65.6215 21.3605 67.1222 20.0604C65.4655 19.4289 60.514 19.6146 52.264 20.6176C43.936 21.2527 39.6309 21.0224 36.9936 14.7226C36.6518 13.2405 37.8776 12.375 39.1554 12.843C40.8381 13.5525 40.6412 14.3771 42.7251 16.2864C43.858 17.3265 47.5763 18.2143 52.5055 17.8131C53.5196 17.7314 54.5225 17.5679 55.5106 17.3339C63.1959 15.5138 68.8643 14.5851 73.6264 14.3548C76.6463 14.2063 82.8756 12.037 91.237 7.5498C109.498 -2.24916 122.231 2.21572 123.123 2.54631H123.13Z" stroke="#B70714" stroke-width="0.898994" stroke-miterlimit="22.93"/>
<path fill-rule="evenodd" clip-rule="evenodd" d="M135.553 12.4227C135.356 12.3892 134.94 12.2852 134.802 12.0624C134.787 12.0401 135.248 12.2667 135.467 12.2444C135.486 11.7503 134.955 11.6501 134.854 11.3826C134.665 11.3306 134.46 11.2117 134.368 11.1003C134.353 11.0854 134.594 11.182 134.813 11.2303L134.728 11.052C134.438 10.3574 133.81 9.42132 133.796 8.65241C133.77 7.35975 133.591 6.836 132.354 5.95937C130.764 4.83387 128.658 4.2544 128.057 3.4892C127.05 2.20768 125.939 0.989312 123.521 0.595571C123.421 0.580713 123.324 0.658718 123.324 0.759011C123.321 1.56507 123.633 2.18911 123.948 3.13632C124.008 3.31462 123.815 3.26633 123.733 3.24775C121.708 2.79458 120.323 2.12968 115.869 1.91795C114.929 1.87337 115.917 3.02117 115.505 3.60435C113.737 6.09681 114.22 10.8143 114.744 13.7228C115.041 15.3646 113.54 18.3845 115.052 17.7382C116.816 16.9804 117.886 15.632 119.246 14.8111C120.119 14.2837 121.14 14.0534 122.154 14.1351C122.336 14.1499 122.5 14.1611 122.622 14.1648C121.404 12.9167 118.666 11.8804 116.798 11.3343L116.809 11.3195C121.055 11.5646 122.786 13.5705 123.963 14.4917C124.104 14.6031 123.818 14.1165 123.907 12.6938C123.933 12.2407 123.978 12.1738 123.971 12.1292C123.959 12.0772 123.904 12.0475 123.636 11.5498C122.418 9.27646 123.332 7.30775 124.175 6.732C123.246 7.82407 123.217 10.7623 124.201 11.52C124.624 10.662 126.002 10.2274 126.626 10.5765C126.626 10.5765 124.985 10.6063 124.424 12.0995C124.156 12.8201 124.372 15.0489 124.472 15.8252C124.524 16.2152 124.557 16.5607 124.576 16.8318C124.613 17.337 124.948 17.7753 125.43 17.9239C126.404 18.2248 127.763 17.9722 128.064 17.1179C128.053 17.0956 128.045 17.0844 128.031 17.0621C126.173 16.7353 126.244 14.9746 126.363 14.384C126.771 12.3892 128.58 12.3744 129.806 12.9093L129.795 12.9019C129.814 12.9093 129.828 12.9167 129.847 12.9279C129.88 12.9427 129.91 12.9576 129.94 12.9724C131.749 13.8045 131.957 14.7406 131.979 14.9597C132.128 15.0043 132.287 15.06 132.458 15.1083C133.19 15.2457 133.439 14.7703 133.543 14.4397C133.736 14.3431 133.937 14.4657 134.171 14.514C134.776 14.6403 135.099 14.4694 135.411 13.9865L135.014 13.7896C134.769 14.0385 134.42 14.3134 134.056 14.1537C134.353 14.0311 134.546 13.9234 134.624 13.5742L133.506 12.7347C134.356 13.1804 135.207 13.4293 135.783 13.3959C135.868 13.0541 135.839 12.7384 135.553 12.4227ZM125.014 3.24033C125.144 3.34805 125.716 3.40748 125.988 3.41491C125.709 2.21883 125.271 1.98852 124.327 1.35705C125.85 1.64307 127.213 3.03603 127.091 4.5107C126.641 4.4587 125.263 3.80865 125.014 3.24033ZM128.372 11.2972C128.19 11.5089 128.016 11.7466 127.849 11.9695C127.979 11.6575 128.123 11.3789 128.298 11.1226C128.569 10.7028 128.889 10.3537 129.242 10.0974C128.989 10.0008 128.016 9.59591 127.447 9.43618C126.875 9.27646 126.314 9.16131 125.806 9.11673C127.109 8.90129 129.03 9.65534 129.561 9.89679C129.739 9.80021 129.929 9.7222 130.122 9.6702C129.301 8.81214 127.388 7.78693 126.764 7.48976C128.625 7.76835 130.389 9.48447 130.504 9.59962C130.683 9.58105 130.861 9.58476 131.047 9.60705C130.605 8.32553 128.045 6.53513 127.797 6.31968C128.279 6.5277 128.859 6.90286 129.349 7.27803C130.23 7.95037 131.006 8.78614 131.6 9.71849C131.63 9.73706 131.656 9.75192 131.686 9.77421C131.883 9.81878 132.343 10.0677 132.455 10.1717C132.51 10.2237 132.741 10.896 132.733 10.9443C131.392 9.7482 129.535 9.94136 128.376 11.3009M134.249 12.0661C133.68 11.052 133.439 10.3574 133.231 9.2356C133.313 9.36561 133.796 11.0557 134.583 12.1292C134.724 12.3187 134.954 12.4895 135.014 12.7161C134.486 12.4747 134.676 12.8313 134.249 12.0698" fill="#B70714"/>
<path fill-rule="evenodd" clip-rule="evenodd" d="M119.05 14.9367C110.239 11.0921 122.594 2.75669 119.225 2.25151C108.876 0.69883 100.723 3.18386 94.1999 9.98519C94.1999 9.98519 95.2696 7.09899 97.7361 5.35687C94.6307 6.44523 87.1868 10.3826 79.676 13.5994C75.3783 15.4493 72.0537 14.9812 68.8704 15.2375C65.3453 15.5199 65.1373 16.025 59.4763 17.1245C57.4184 17.5257 54.6585 17.9306 52.4632 18.1498C39.2172 19.4536 41.1079 13.6589 38.5597 13.1165C37.137 12.812 36.3718 13.9635 37.6236 16.0325C40.7067 21.1325 44.9116 21.4037 55.7915 20.215C60.3232 19.721 66.4039 18.3578 68.1943 19.6987C68.4915 19.9216 65.5867 22.0909 64.3498 26.2103C62.1062 31.1061 60.0595 33.9031 55.5537 35.3258C57.9608 35.4335 60.1709 34.9283 62.9122 33.3608C63.1463 33.2271 61.6976 35.0398 59.6546 35.675C57.7267 36.2767 54.9334 35.9424 54.9334 35.9387C54.0122 38.6206 50.3162 46.5994 46.9806 46.0757C45.6211 45.8602 45.0453 46.7963 43.5186 48.8987C43.0023 49.6082 42.3968 51.4358 42.9949 51.7255C44.4324 52.4238 48.615 52.7173 50.476 49.0547C54.1274 43.847 58.3545 39.2521 63.0868 38.6577C70.2373 37.7588 74.7022 33.3125 79.0148 28.5208C82.5288 23.9742 84.3414 22.9898 89.3561 23.3575C99.5154 24.1042 105.135 22.2915 105.689 21.3963C103.367 14.8289 108.538 13.6106 108.538 13.6106C105.618 16.4633 105.819 17.7412 106.736 21.3703C106.956 22.2395 116.677 21.6266 122.118 23.3315C125.146 24.2825 125.406 26.292 126.791 27.9227C126.94 28.0936 128.355 27.8596 129.031 27.2912C130.175 26.3217 129.399 24.509 127.972 23.4467C125.621 21.6971 115.243 19.0412 112.565 18.3763C112.494 18.3578 112.509 18.2575 112.583 18.2538C116.093 18.0977 116.045 16.8942 119.061 14.933" fill="#B70714"/>
<path fill-rule="evenodd" clip-rule="evenodd" d="M127.913 16.5644C128.634 16.2041 128.771 15.424 128.771 15.424C128.771 15.424 127.75 16.1558 127.241 15.4129C126.498 14.3282 127.482 11.7095 130.272 13.3847C130.584 13.5742 131.171 14.0013 131.018 14.1091C130.944 14.1908 130.848 14.2688 130.703 14.3319C130.276 14.5251 129.889 14.5437 129.443 14.6291C130.138 14.8965 131.468 14.9263 132.003 14.6514C131.067 13.3104 130.023 12.4412 128.489 12.5118C127.241 12.5675 126.431 13.1767 126.416 14.6365C126.409 15.2829 126.758 16.3006 127.913 16.5569" fill="#B70714"/>
<path fill-rule="evenodd" clip-rule="evenodd" d="M132.878 9.04023C132.548 9.19253 131.89 9.26682 131.656 8.62792C131.452 8.06331 131.467 7.51355 131.745 6.83008C131.745 6.83008 131.939 7.74757 132.878 9.04023Z" fill="white"/>
</g>
<defs>
<clipPath id="clip0_3010_10338">
<rect width="139.659" height="76.891" fill="white"/>
</clipPath>
</defs>
</svg>
