<svg width="30" height="30" viewBox="0 0 30 30" fill="none" xmlns="http://www.w3.org/2000/svg">
<g clip-path="url(#clip0_1360_11)">
<path d="M27.5769 4.26121C26.0059 2.6903 23.9262 1.8317 21.7066 1.8317C19.487 1.8317 17.4009 2.69666 15.83 4.26757L15.0096 5.088L14.1764 4.25485C12.6055 2.68394 10.5131 1.81262 8.29345 1.81262C6.08018 1.81262 3.99411 2.67758 2.42956 4.24213C0.858654 5.81304 -0.00630034 7.8991 5.96209e-05 10.1187C5.96209e-05 12.3384 0.871374 14.4181 2.44228 15.989L14.3863 27.933C14.5517 28.0983 14.7742 28.1874 14.9905 28.1874C15.2067 28.1874 15.4293 28.1047 15.5947 27.9393L27.5641 16.0144C29.135 14.4435 30 12.3574 30 10.1378C30.0064 7.91818 29.1478 5.83212 27.5769 4.26121ZM26.3557 14.7997L14.9905 26.1204L3.65068 14.7806C2.40412 13.534 1.71725 11.8804 1.71725 10.1187C1.71725 8.35702 2.39776 6.70343 3.64432 5.46324C4.88451 4.22305 6.5381 3.53617 8.29345 3.53617C10.0552 3.53617 11.7151 4.22305 12.9617 5.4696L14.399 6.90695C14.7361 7.24403 15.2767 7.24403 15.6138 6.90695L17.0384 5.48232C18.2849 4.23577 19.9449 3.54889 21.7002 3.54889C23.4556 3.54889 25.1092 4.23577 26.3557 5.47596C27.6023 6.72251 28.2828 8.3761 28.2828 10.1378C28.2892 11.8995 27.6023 13.5531 26.3557 14.7997Z" fill="black" stroke="black" stroke-width="1.69599"/>
</g>
<defs>
<clipPath id="clip0_1360_11">
<rect width="30" height="30" fill="white"/>
</clipPath>
</defs>
</svg>
