<svg width="24" height="24" viewBox="0 0 24 24" fill="none" xmlns="http://www.w3.org/2000/svg">
<path fill-rule="evenodd" clip-rule="evenodd" d="M16.858 13.42C16.408 13.24 15.903 13.38 15.543 13.703C14.575 14.57 13.36 15.2 12 15.2C10.64 15.2 9.425 14.57 8.457 13.703C8.097 13.379 7.592 13.241 7.142 13.421C5.466 14.09 4 14.973 4 16C4 18.4 6.4 21.6 12 21.6C17.6 21.6 20 18.4 20 16C20 14.973 18.534 14.092 16.858 13.42Z" fill="white"/>
<path d="M16.8 7.30002C16.8 10.393 14.4 13.6 12 13.6C9.60001 13.6 7.20001 10.393 7.20001 7.30002C7.20001 4.20702 9.34901 2.40002 12 2.40002C14.651 2.40002 16.8 4.20702 16.8 7.30002Z" fill="white"/>
</svg>
