<svg width="120" height="66" viewBox="0 0 120 66" fill="none" xmlns="http://www.w3.org/2000/svg">
<rect width="120" height="36" fill="#3D3D3D"/>
<path d="M15.9688 19.1719H10.125L10.0938 15.7656H14.9219C15.776 15.7656 16.4688 15.6615 17 15.4531C17.5417 15.2448 17.9375 14.9427 18.1875 14.5469C18.4375 14.1406 18.5625 13.6406 18.5625 13.0469C18.5625 12.3698 18.4375 11.8229 18.1875 11.4062C17.9375 10.9896 17.5417 10.6875 17 10.5C16.4688 10.3021 15.7812 10.2031 14.9375 10.2031H11.9688V29H6.875V6.25H14.9375C16.3021 6.25 17.5208 6.375 18.5938 6.625C19.6667 6.875 20.5781 7.26042 21.3281 7.78125C22.0885 8.30208 22.6667 8.95312 23.0625 9.73438C23.4583 10.5156 23.6562 11.4375 23.6562 12.5C23.6562 13.4271 23.4479 14.2917 23.0312 15.0938C22.625 15.8958 21.9688 16.5469 21.0625 17.0469C20.1562 17.5469 18.9427 17.8177 17.4219 17.8594L15.9688 19.1719ZM15.7656 29H8.82812L10.6719 25.0625H15.7656C16.5469 25.0625 17.1823 24.9375 17.6719 24.6875C18.1615 24.4375 18.5208 24.099 18.75 23.6719C18.9792 23.2448 19.0938 22.7656 19.0938 22.2344C19.0938 21.6094 18.9844 21.0677 18.7656 20.6094C18.5573 20.151 18.224 19.7969 17.7656 19.5469C17.3177 19.2969 16.7188 19.1719 15.9688 19.1719H11.4062L11.4375 15.7656H17.0156L18.2031 17.1094C19.651 17.0781 20.8073 17.3125 21.6719 17.8125C22.5469 18.3021 23.1771 18.9479 23.5625 19.75C23.9479 20.5521 24.1406 21.401 24.1406 22.2969C24.1406 23.776 23.8229 25.0156 23.1875 26.0156C22.5521 27.0052 21.6094 27.75 20.3594 28.25C19.1198 28.75 17.5885 29 15.7656 29ZM53.7863 25.0625V29H41.6769V25.0625H53.7863ZM43.4113 6.25V29H38.3175V6.25H43.4113ZM52.2238 15.4062V19.2188H41.6769V15.4062H52.2238ZM53.8019 6.25V10.2031H41.6769V6.25H53.8019ZM76.6194 10.5781L70.7444 29H65.3069L73.7288 6.25H77.1663L76.6194 10.5781ZM81.4944 29L75.6038 10.5781L74.9944 6.25H78.4788L86.9319 29H81.4944ZM81.2444 20.5312V24.4688H69.385V20.5312H81.2444ZM108.39 6.25V29H103.312V6.25H108.39ZM115.312 6.25V10.2031H96.5306V6.25H115.312Z" fill="white"/>
<rect x="0.5" y="36.5" width="119" height="29" fill="white" stroke="#3D3D3D"/>
<path d="M19.6719 56C19.6719 55.6146 19.6146 55.2708 19.5 54.9688C19.3854 54.6562 19.1771 54.3698 18.875 54.1094C18.5729 53.849 18.1458 53.5885 17.5938 53.3281C17.0417 53.0573 16.3177 52.7812 15.4219 52.5C14.401 52.1667 13.4271 51.7917 12.5 51.375C11.5833 50.9479 10.7656 50.4531 10.0469 49.8906C9.32812 49.3281 8.76042 48.6719 8.34375 47.9219C7.9375 47.1719 7.73438 46.2969 7.73438 45.2969C7.73438 44.3281 7.94792 43.4531 8.375 42.6719C8.80208 41.8906 9.40104 41.224 10.1719 40.6719C10.9427 40.1094 11.849 39.6823 12.8906 39.3906C13.9323 39.0885 15.0781 38.9375 16.3281 38.9375C17.9948 38.9375 19.4583 39.2344 20.7188 39.8281C21.9896 40.4115 22.9792 41.2344 23.6875 42.2969C24.3958 43.349 24.75 44.5729 24.75 45.9688H19.6875C19.6875 45.3542 19.5573 44.8125 19.2969 44.3438C19.0469 43.8646 18.6615 43.4896 18.1406 43.2188C17.6302 42.9479 16.9896 42.8125 16.2188 42.8125C15.4688 42.8125 14.8385 42.9271 14.3281 43.1562C13.8281 43.375 13.4479 43.6771 13.1875 44.0625C12.9375 44.4479 12.8125 44.8698 12.8125 45.3281C12.8125 45.6927 12.9062 46.026 13.0938 46.3281C13.2917 46.6198 13.5729 46.8958 13.9375 47.1562C14.3125 47.4062 14.7708 47.6458 15.3125 47.875C15.8542 48.1042 16.474 48.3229 17.1719 48.5312C18.3906 48.9167 19.4688 49.3438 20.4062 49.8125C21.3542 50.2812 22.151 50.8125 22.7969 51.4062C23.4427 52 23.9271 52.6719 24.25 53.4219C24.5833 54.1719 24.75 55.0208 24.75 55.9688C24.75 56.9792 24.5521 57.875 24.1562 58.6562C23.7708 59.4375 23.2083 60.1042 22.4688 60.6562C21.7396 61.1979 20.8646 61.6094 19.8438 61.8906C18.8229 62.1719 17.6823 62.3125 16.4219 62.3125C15.276 62.3125 14.1458 62.1667 13.0312 61.875C11.9167 61.5729 10.9062 61.1146 10 60.5C9.10417 59.8854 8.38542 59.1042 7.84375 58.1562C7.3125 57.1979 7.04688 56.0625 7.04688 54.75H12.1406C12.1406 55.4375 12.2396 56.0208 12.4375 56.5C12.6354 56.9688 12.9167 57.349 13.2812 57.6406C13.6562 57.9323 14.1094 58.1406 14.6406 58.2656C15.1719 58.3906 15.7656 58.4531 16.4219 58.4531C17.1823 58.4531 17.7969 58.349 18.2656 58.1406C18.7448 57.9219 19.099 57.625 19.3281 57.25C19.5573 56.875 19.6719 56.4583 19.6719 56ZM54.0988 58.0625V62H41.9894V58.0625H54.0988ZM43.7238 39.25V62H38.63V39.25H43.7238ZM52.5363 48.4062V52.2188H41.9894V48.4062H52.5363ZM54.1144 39.25V43.2031H41.9894V39.25H54.1144ZM82.3225 58.0625V62H70.8381V58.0625H82.3225ZM72.5725 39.25V62H67.4788V39.25H72.5725ZM110.546 58.0625V62H99.0619V58.0625H110.546ZM100.796 39.25V62H95.7025V39.25H100.796Z" fill="#3D3D3D"/>
</svg>
