<svg width="328" height="33" viewBox="0 0 328 33" fill="none" xmlns="http://www.w3.org/2000/svg">
<path d="M328 19.3249C328 19.8553 327.789 20.364 327.414 20.7391L315.74 32.4142C315.365 32.7893 314.856 33 314.326 33H2C0.895433 33 0 32.1046 0 31V2C0 0.895431 0.89543 0 2 0H326C327.105 0 328 0.895431 328 2V19.3249Z" fill="#26374D"/>
<path d="M81.97 21.56V23H73.96L71.44 20.66V12.74L73.96 10.4H81.97V11.84H74.68L73.15 13.28V20.12L74.68 21.56H81.97ZM92.3172 19.94H91.0572L86.3772 13.28V23H84.6672V10.4H86.3772L91.6872 17.96L96.9972 10.4H98.7072V23H96.9972V13.28L92.3172 19.94ZM104.844 11.66L103.314 13.1V20.3L104.844 21.74H110.154L111.684 20.3V13.1L110.154 11.66H104.844ZM104.124 10.22H110.874L113.394 12.56V20.84L110.874 23.18H104.124L101.604 20.84V12.56L104.124 10.22ZM121.506 23H119.796V11.84H115.026V10.4H126.276V11.84H121.506V23ZM137.167 18.86H130.147V23H128.437V10.4H137.167L139.597 12.65V16.61L137.167 18.86ZM137.887 13.19L136.447 11.84H130.147V17.42H136.447L137.887 16.07V13.19ZM142.482 10.4H152.922V11.84H144.192V15.98H150.942V17.42H144.192V21.56H153.102V23H142.482V10.4ZM160.67 23H158.96V11.84H154.19V10.4H165.44V11.84H160.67V23ZM167.601 10.4H169.311V15.08H176.151L178.491 17.24V20.84L176.151 23H167.601V10.4ZM175.431 21.56L176.781 20.3V17.78L175.431 16.52H169.311V21.56H175.431ZM196.584 16.34L198.384 17.96V21.11L196.314 23H186.954V10.4H195.684L197.754 12.29V15.26L196.584 16.34ZM195.594 21.56L196.674 20.57V18.5L195.324 17.24H188.664V21.56H195.594ZM196.044 12.83L194.964 11.84H188.664V15.8H194.874L196.044 14.72V12.83ZM212.691 23H210.981V13.01L202.881 23H201.351V10.4H203.061V20.39L211.161 10.4H212.691V23ZM214.582 21.56H215.572L217.282 19.85L218.002 10.4H227.092V21.56H228.802V25.7H227.092V23H216.292V25.7H214.582V21.56ZM218.992 20.39L217.732 21.56H225.382V11.84H219.622L218.992 20.39ZM231.234 10.4H241.674V11.84H232.944V15.98H239.694V17.42H232.944V21.56H241.854V23H231.234V10.4ZM247.086 11.66L245.556 13.1V20.3L247.086 21.74H252.396L253.926 20.3V13.1L252.396 11.66H247.086ZM246.366 10.22H253.116L255.636 12.56V20.84L253.116 23.18H246.366L243.846 20.84V12.56L246.366 10.22Z" fill="white"/>
</svg>
