<svg width="432" height="33" viewBox="0 0 432 33" fill="none" xmlns="http://www.w3.org/2000/svg">
<path d="M432 19.3249C432 19.8553 431.789 20.364 431.414 20.7391L419.74 32.4142C419.365 32.7893 418.856 33 418.326 33H2.00001C0.895438 33 0 32.1046 0 31V2C0 0.895431 0.895431 0 2 0H430C431.105 0 432 0.895431 432 2V19.3249Z" fill="#1A2634"/>
<path d="M133.97 21.56V23H125.96L123.44 20.66V12.74L125.96 10.4H133.97V11.84H126.68L125.15 13.28V20.12L126.68 21.56H133.97ZM144.317 19.94H143.057L138.377 13.28V23H136.667V10.4H138.377L143.687 17.96L148.997 10.4H150.707V23H148.997V13.28L144.317 19.94ZM156.844 11.66L155.314 13.1V20.3L156.844 21.74H162.154L163.684 20.3V13.1L162.154 11.66H156.844ZM156.124 10.22H162.874L165.394 12.56V20.84L162.874 23.18H156.124L153.604 20.84V12.56L156.124 10.22ZM173.506 23H171.796V11.84H167.026V10.4H178.276V11.84H173.506V23ZM189.167 18.86H182.147V23H180.437V10.4H189.167L191.597 12.65V16.61L189.167 18.86ZM189.887 13.19L188.447 11.84H182.147V17.42H188.447L189.887 16.07V13.19ZM194.482 10.4H204.922V11.84H196.192V15.98H202.942V17.42H196.192V21.56H205.102V23H194.482V10.4ZM212.67 23H210.96V11.84H206.19V10.4H217.44V11.84H212.67V23ZM219.601 10.4H221.311V15.08H228.151L230.491 17.24V20.84L228.151 23H219.601V10.4ZM227.431 21.56L228.781 20.3V17.78L227.431 16.52H221.311V21.56H227.431ZM248.584 16.34L250.384 17.96V21.11L248.314 23H238.954V10.4H247.684L249.754 12.29V15.26L248.584 16.34ZM247.594 21.56L248.674 20.57V18.5L247.324 17.24H240.664V21.56H247.594ZM248.044 12.83L246.964 11.84H240.664V15.8H246.874L248.044 14.72V12.83ZM264.691 23H262.981V13.01L254.881 23H253.351V10.4H255.061V20.39L263.161 10.4H264.691V23ZM266.582 21.56H267.572L269.282 19.85L270.002 10.4H279.092V21.56H280.802V25.7H279.092V23H268.292V25.7H266.582V21.56ZM270.992 20.39L269.732 21.56H277.382V11.84H271.622L270.992 20.39ZM283.234 10.4H293.674V11.84H284.944V15.98H291.694V17.42H284.944V21.56H293.854V23H283.234V10.4ZM299.086 11.66L297.556 13.1V20.3L299.086 21.74H304.396L305.926 20.3V13.1L304.396 11.66H299.086ZM298.366 10.22H305.116L307.636 12.56V20.84L305.116 23.18H298.366L295.846 20.84V12.56L298.366 10.22Z" fill="white"/>
</svg>
